<svg width="1920" height="1080" viewBox="0 0 1920 1080" fill="none" xmlns="http://www.w3.org/2000/svg">
<rect width="1920" height="1080" fill="#EDEDED"/>
<rect x="556.5" y="350.5" width="807" height="461" rx="10.5" fill="#F6F5F5" stroke="#A2A2A2"/>
<rect x="557" y="270" width="806" height="65" rx="8" fill="#BCBCBC"/>
<rect x="966" y="278" width="385" height="50" rx="8" fill="#BCBCBC"/>
<path d="M800.084 211.013L804.303 210.603C804.557 212.019 805.069 213.059 805.841 213.723C806.622 214.387 807.672 214.719 808.99 214.719C810.387 214.719 811.437 214.426 812.14 213.84C812.853 213.244 813.209 212.551 813.209 211.76C813.209 211.252 813.058 210.822 812.755 210.471C812.462 210.109 811.944 209.797 811.202 209.533C810.694 209.357 809.537 209.045 807.73 208.596C805.406 208.02 803.775 207.312 802.838 206.472C801.52 205.29 800.86 203.85 800.86 202.15C800.86 201.057 801.168 200.036 801.783 199.089C802.408 198.132 803.302 197.404 804.464 196.906C805.636 196.408 807.047 196.159 808.697 196.159C811.393 196.159 813.419 196.75 814.776 197.932C816.144 199.113 816.861 200.69 816.93 202.663L812.594 202.854C812.408 201.75 812.008 200.959 811.393 200.48C810.787 199.992 809.874 199.748 808.653 199.748C807.394 199.748 806.407 200.007 805.694 200.524C805.235 200.856 805.006 201.301 805.006 201.857C805.006 202.365 805.221 202.8 805.65 203.161C806.197 203.62 807.525 204.099 809.635 204.597C811.744 205.095 813.302 205.612 814.308 206.149C815.323 206.677 816.114 207.404 816.681 208.332C817.257 209.25 817.545 210.388 817.545 211.745C817.545 212.976 817.203 214.128 816.52 215.202C815.836 216.276 814.869 217.077 813.619 217.604C812.369 218.122 810.812 218.381 808.946 218.381C806.231 218.381 804.146 217.756 802.691 216.506C801.236 215.246 800.367 213.415 800.084 211.013ZM821.163 200.334V196.525H825.279V200.334H821.163ZM821.163 218V202.443H825.279V218H821.163ZM828.062 213.562L832.193 212.932C832.369 213.732 832.726 214.343 833.263 214.763C833.8 215.173 834.552 215.378 835.519 215.378C836.583 215.378 837.384 215.183 837.921 214.792C838.282 214.519 838.463 214.152 838.463 213.693C838.463 213.381 838.365 213.122 838.17 212.917C837.965 212.722 837.506 212.541 836.793 212.375C833.473 211.643 831.368 210.974 830.479 210.368C829.249 209.528 828.634 208.361 828.634 206.867C828.634 205.52 829.166 204.387 830.23 203.469C831.295 202.551 832.945 202.092 835.182 202.092C837.311 202.092 838.893 202.438 839.928 203.132C840.963 203.825 841.676 204.851 842.066 206.208L838.185 206.926C838.019 206.32 837.701 205.856 837.232 205.534C836.773 205.212 836.114 205.051 835.255 205.051C834.171 205.051 833.395 205.202 832.926 205.505C832.613 205.72 832.457 205.998 832.457 206.34C832.457 206.633 832.594 206.882 832.867 207.087C833.238 207.36 834.518 207.746 836.705 208.244C838.902 208.742 840.436 209.353 841.305 210.075C842.164 210.808 842.594 211.828 842.594 213.137C842.594 214.562 841.998 215.788 840.807 216.813C839.615 217.839 837.853 218.352 835.519 218.352C833.399 218.352 831.72 217.922 830.479 217.062C829.249 216.203 828.443 215.036 828.062 213.562ZM853.346 202.443V205.725H850.533V211.994C850.533 213.264 850.558 214.006 850.606 214.221C850.665 214.426 850.787 214.597 850.973 214.733C851.168 214.87 851.402 214.938 851.676 214.938C852.057 214.938 852.608 214.807 853.331 214.543L853.683 217.736C852.726 218.146 851.642 218.352 850.431 218.352C849.688 218.352 849.02 218.229 848.424 217.985C847.828 217.731 847.389 217.409 847.105 217.019C846.832 216.618 846.642 216.081 846.534 215.407C846.446 214.929 846.402 213.962 846.402 212.507V205.725H844.513V202.443H846.402V199.353L850.533 196.95V202.443H853.346ZM865.211 213.049L869.312 213.737C868.785 215.241 867.95 216.389 866.808 217.18C865.675 217.961 864.254 218.352 862.545 218.352C859.84 218.352 857.838 217.468 856.539 215.7C855.514 214.284 855.001 212.497 855.001 210.339C855.001 207.761 855.675 205.744 857.022 204.289C858.37 202.824 860.074 202.092 862.135 202.092C864.449 202.092 866.275 202.858 867.613 204.392C868.951 205.915 869.591 208.254 869.532 211.408H859.22C859.249 212.629 859.581 213.581 860.216 214.265C860.851 214.938 861.642 215.275 862.589 215.275C863.233 215.275 863.775 215.1 864.215 214.748C864.654 214.396 864.986 213.83 865.211 213.049ZM865.445 208.889C865.416 207.697 865.108 206.794 864.522 206.179C863.937 205.554 863.224 205.241 862.384 205.241C861.485 205.241 860.743 205.568 860.157 206.223C859.571 206.877 859.283 207.766 859.293 208.889H865.445ZM872.594 202.443H876.388V204.567C877.745 202.917 879.361 202.092 881.236 202.092C882.232 202.092 883.097 202.297 883.829 202.707C884.562 203.117 885.162 203.737 885.631 204.567C886.314 203.737 887.052 203.117 887.843 202.707C888.634 202.297 889.479 202.092 890.377 202.092C891.52 202.092 892.486 202.326 893.277 202.795C894.068 203.254 894.659 203.933 895.05 204.831C895.333 205.495 895.475 206.569 895.475 208.054V218H891.358V209.108C891.358 207.565 891.217 206.569 890.934 206.12C890.553 205.534 889.967 205.241 889.176 205.241C888.6 205.241 888.058 205.417 887.55 205.769C887.042 206.12 886.676 206.638 886.451 207.321C886.227 207.995 886.114 209.064 886.114 210.529V218H881.998V209.475C881.998 207.961 881.925 206.984 881.778 206.545C881.632 206.105 881.402 205.778 881.09 205.563C880.787 205.349 880.372 205.241 879.845 205.241C879.21 205.241 878.639 205.412 878.131 205.754C877.623 206.096 877.257 206.589 877.032 207.233C876.817 207.878 876.71 208.947 876.71 210.441V218H872.594V202.443ZM902.667 207.189L898.932 206.516C899.352 205.012 900.074 203.898 901.1 203.176C902.125 202.453 903.648 202.092 905.67 202.092C907.506 202.092 908.873 202.312 909.771 202.751C910.67 203.181 911.3 203.732 911.661 204.406C912.032 205.07 912.218 206.296 912.218 208.083L912.174 212.888C912.174 214.255 912.237 215.266 912.364 215.92C912.501 216.564 912.75 217.258 913.111 218H909.039C908.932 217.727 908.8 217.321 908.644 216.784C908.575 216.54 908.526 216.379 908.497 216.301C907.794 216.984 907.042 217.497 906.241 217.839C905.44 218.181 904.586 218.352 903.678 218.352C902.076 218.352 900.812 217.917 899.884 217.048C898.966 216.179 898.507 215.08 898.507 213.752C898.507 212.873 898.717 212.092 899.137 211.408C899.557 210.715 900.143 210.188 900.895 209.826C901.656 209.455 902.75 209.133 904.176 208.859C906.1 208.498 907.433 208.161 908.175 207.849V207.438C908.175 206.647 907.979 206.086 907.589 205.754C907.198 205.412 906.461 205.241 905.377 205.241C904.645 205.241 904.073 205.388 903.663 205.681C903.253 205.964 902.921 206.467 902.667 207.189ZM908.175 210.529C907.647 210.705 906.812 210.915 905.67 211.159C904.527 211.403 903.78 211.643 903.429 211.877C902.892 212.258 902.623 212.741 902.623 213.327C902.623 213.903 902.838 214.401 903.268 214.821C903.697 215.241 904.244 215.451 904.908 215.451C905.65 215.451 906.358 215.207 907.032 214.719C907.53 214.348 907.857 213.894 908.014 213.356C908.121 213.005 908.175 212.336 908.175 211.35V210.529ZM938.907 218H935.084V215.715C934.449 216.604 933.697 217.268 932.828 217.707C931.969 218.137 931.1 218.352 930.221 218.352C928.434 218.352 926.9 217.634 925.621 216.198C924.352 214.753 923.717 212.741 923.717 210.163C923.717 207.526 924.337 205.524 925.577 204.157C926.817 202.78 928.385 202.092 930.279 202.092C932.018 202.092 933.521 202.814 934.791 204.26V196.525H938.907V218ZM927.921 209.885C927.921 211.545 928.15 212.746 928.609 213.488C929.273 214.562 930.201 215.1 931.393 215.1C932.34 215.1 933.146 214.699 933.81 213.898C934.474 213.088 934.806 211.882 934.806 210.28C934.806 208.493 934.483 207.209 933.839 206.428C933.194 205.637 932.369 205.241 931.363 205.241C930.387 205.241 929.566 205.632 928.902 206.413C928.248 207.185 927.921 208.342 927.921 209.885ZM951.988 213.049L956.09 213.737C955.562 215.241 954.728 216.389 953.585 217.18C952.452 217.961 951.031 218.352 949.322 218.352C946.617 218.352 944.615 217.468 943.316 215.7C942.291 214.284 941.778 212.497 941.778 210.339C941.778 207.761 942.452 205.744 943.8 204.289C945.147 202.824 946.852 202.092 948.912 202.092C951.227 202.092 953.053 202.858 954.391 204.392C955.729 205.915 956.368 208.254 956.31 211.408H945.997C946.026 212.629 946.358 213.581 946.993 214.265C947.628 214.938 948.419 215.275 949.366 215.275C950.011 215.275 950.553 215.1 950.992 214.748C951.432 214.396 951.764 213.83 951.988 213.049ZM952.223 208.889C952.193 207.697 951.886 206.794 951.3 206.179C950.714 205.554 950.001 205.241 949.161 205.241C948.263 205.241 947.521 205.568 946.935 206.223C946.349 206.877 946.061 207.766 946.07 208.889H952.223ZM981.798 210.104L986.002 211.438C985.357 213.781 984.283 215.524 982.779 216.667C981.285 217.8 979.386 218.366 977.081 218.366C974.229 218.366 971.886 217.395 970.05 215.451C968.214 213.498 967.296 210.832 967.296 207.453C967.296 203.879 968.219 201.105 970.064 199.133C971.91 197.15 974.337 196.159 977.345 196.159C979.972 196.159 982.105 196.936 983.746 198.488C984.723 199.406 985.455 200.725 985.943 202.443L981.651 203.469C981.397 202.355 980.865 201.477 980.055 200.832C979.254 200.188 978.277 199.865 977.125 199.865C975.533 199.865 974.239 200.437 973.243 201.579C972.257 202.722 971.764 204.572 971.764 207.131C971.764 209.846 972.252 211.779 973.229 212.932C974.205 214.084 975.475 214.66 977.037 214.66C978.189 214.66 979.181 214.294 980.011 213.562C980.841 212.829 981.437 211.677 981.798 210.104ZM993.81 196.525V204.421C995.138 202.868 996.725 202.092 998.57 202.092C999.518 202.092 1000.37 202.268 1001.13 202.619C1001.9 202.971 1002.47 203.42 1002.85 203.967C1003.24 204.514 1003.5 205.119 1003.64 205.783C1003.79 206.447 1003.86 207.478 1003.86 208.874V218H999.742V209.782C999.742 208.151 999.664 207.116 999.508 206.677C999.352 206.237 999.073 205.891 998.673 205.637C998.282 205.373 997.789 205.241 997.193 205.241C996.51 205.241 995.899 205.407 995.362 205.739C994.825 206.071 994.43 206.574 994.176 207.248C993.932 207.912 993.81 208.898 993.81 210.207V218H989.693V196.525H993.81ZM1011.12 207.189L1007.39 206.516C1007.81 205.012 1008.53 203.898 1009.56 203.176C1010.58 202.453 1012.11 202.092 1014.13 202.092C1015.96 202.092 1017.33 202.312 1018.23 202.751C1019.13 203.181 1019.76 203.732 1020.12 204.406C1020.49 205.07 1020.67 206.296 1020.67 208.083L1020.63 212.888C1020.63 214.255 1020.69 215.266 1020.82 215.92C1020.96 216.564 1021.21 217.258 1021.57 218H1017.5C1017.39 217.727 1017.26 217.321 1017.1 216.784C1017.03 216.54 1016.98 216.379 1016.95 216.301C1016.25 216.984 1015.5 217.497 1014.7 217.839C1013.9 218.181 1013.04 218.352 1012.13 218.352C1010.53 218.352 1009.27 217.917 1008.34 217.048C1007.42 216.179 1006.96 215.08 1006.96 213.752C1006.96 212.873 1007.17 212.092 1007.59 211.408C1008.01 210.715 1008.6 210.188 1009.35 209.826C1010.11 209.455 1011.21 209.133 1012.63 208.859C1014.56 208.498 1015.89 208.161 1016.63 207.849V207.438C1016.63 206.647 1016.44 206.086 1016.05 205.754C1015.66 205.412 1014.92 205.241 1013.83 205.241C1013.1 205.241 1012.53 205.388 1012.12 205.681C1011.71 205.964 1011.38 206.467 1011.12 207.189ZM1016.63 210.529C1016.1 210.705 1015.27 210.915 1014.13 211.159C1012.98 211.403 1012.24 211.643 1011.89 211.877C1011.35 212.258 1011.08 212.741 1011.08 213.327C1011.08 213.903 1011.29 214.401 1011.72 214.821C1012.15 215.241 1012.7 215.451 1013.37 215.451C1014.11 215.451 1014.82 215.207 1015.49 214.719C1015.99 214.348 1016.31 213.894 1016.47 213.356C1016.58 213.005 1016.63 212.336 1016.63 211.35V210.529ZM1024.44 202.443H1028.23V204.567C1029.59 202.917 1031.21 202.092 1033.08 202.092C1034.08 202.092 1034.94 202.297 1035.67 202.707C1036.41 203.117 1037.01 203.737 1037.48 204.567C1038.16 203.737 1038.9 203.117 1039.69 202.707C1040.48 202.297 1041.32 202.092 1042.22 202.092C1043.37 202.092 1044.33 202.326 1045.12 202.795C1045.91 203.254 1046.5 203.933 1046.9 204.831C1047.18 205.495 1047.32 206.569 1047.32 208.054V218H1043.2V209.108C1043.2 207.565 1043.06 206.569 1042.78 206.12C1042.4 205.534 1041.81 205.241 1041.02 205.241C1040.45 205.241 1039.9 205.417 1039.4 205.769C1038.89 206.12 1038.52 206.638 1038.3 207.321C1038.07 207.995 1037.96 209.064 1037.96 210.529V218H1033.84V209.475C1033.84 207.961 1033.77 206.984 1033.62 206.545C1033.48 206.105 1033.25 205.778 1032.94 205.563C1032.63 205.349 1032.22 205.241 1031.69 205.241C1031.06 205.241 1030.48 205.412 1029.98 205.754C1029.47 206.096 1029.1 206.589 1028.88 207.233C1028.66 207.878 1028.56 208.947 1028.56 210.441V218H1024.44V202.443ZM1054.51 207.189L1050.78 206.516C1051.2 205.012 1051.92 203.898 1052.95 203.176C1053.97 202.453 1055.49 202.092 1057.52 202.092C1059.35 202.092 1060.72 202.312 1061.62 202.751C1062.52 203.181 1063.15 203.732 1063.51 204.406C1063.88 205.07 1064.06 206.296 1064.06 208.083L1064.02 212.888C1064.02 214.255 1064.08 215.266 1064.21 215.92C1064.35 216.564 1064.6 217.258 1064.96 218H1060.88C1060.78 217.727 1060.65 217.321 1060.49 216.784C1060.42 216.54 1060.37 216.379 1060.34 216.301C1059.64 216.984 1058.89 217.497 1058.09 217.839C1057.29 218.181 1056.43 218.352 1055.52 218.352C1053.92 218.352 1052.66 217.917 1051.73 217.048C1050.81 216.179 1050.35 215.08 1050.35 213.752C1050.35 212.873 1050.56 212.092 1050.98 211.408C1051.4 210.715 1051.99 210.188 1052.74 209.826C1053.5 209.455 1054.6 209.133 1056.02 208.859C1057.95 208.498 1059.28 208.161 1060.02 207.849V207.438C1060.02 206.647 1059.83 206.086 1059.43 205.754C1059.04 205.412 1058.31 205.241 1057.22 205.241C1056.49 205.241 1055.92 205.388 1055.51 205.681C1055.1 205.964 1054.77 206.467 1054.51 207.189ZM1060.02 210.529C1059.49 210.705 1058.66 210.915 1057.52 211.159C1056.37 211.403 1055.63 211.643 1055.27 211.877C1054.74 212.258 1054.47 212.741 1054.47 213.327C1054.47 213.903 1054.68 214.401 1055.11 214.821C1055.54 215.241 1056.09 215.451 1056.75 215.451C1057.5 215.451 1058.2 215.207 1058.88 214.719C1059.38 214.348 1059.7 213.894 1059.86 213.356C1059.97 213.005 1060.02 212.336 1060.02 211.35V210.529ZM1082.4 218H1078.58V215.715C1077.95 216.604 1077.19 217.268 1076.32 217.707C1075.46 218.137 1074.6 218.352 1073.72 218.352C1071.93 218.352 1070.4 217.634 1069.12 216.198C1067.85 214.753 1067.21 212.741 1067.21 210.163C1067.21 207.526 1067.83 205.524 1069.07 204.157C1070.31 202.78 1071.88 202.092 1073.78 202.092C1075.51 202.092 1077.02 202.814 1078.29 204.26V196.525H1082.4V218ZM1071.42 209.885C1071.42 211.545 1071.65 212.746 1072.11 213.488C1072.77 214.562 1073.7 215.1 1074.89 215.1C1075.84 215.1 1076.64 214.699 1077.31 213.898C1077.97 213.088 1078.3 211.882 1078.3 210.28C1078.3 208.493 1077.98 207.209 1077.33 206.428C1076.69 205.637 1075.87 205.241 1074.86 205.241C1073.88 205.241 1073.06 205.632 1072.4 206.413C1071.74 207.185 1071.42 208.342 1071.42 209.885ZM1085.52 210.002C1085.52 208.635 1085.86 207.312 1086.53 206.032C1087.21 204.753 1088.16 203.776 1089.39 203.103C1090.63 202.429 1092.01 202.092 1093.54 202.092C1095.89 202.092 1097.82 202.858 1099.32 204.392C1100.83 205.915 1101.58 207.844 1101.58 210.178C1101.58 212.531 1100.82 214.484 1099.29 216.037C1097.78 217.58 1095.87 218.352 1093.57 218.352C1092.14 218.352 1090.78 218.029 1089.48 217.385C1088.19 216.74 1087.21 215.798 1086.53 214.558C1085.86 213.308 1085.52 211.789 1085.52 210.002ZM1089.74 210.222C1089.74 211.765 1090.11 212.946 1090.84 213.767C1091.57 214.587 1092.48 214.997 1093.55 214.997C1094.62 214.997 1095.52 214.587 1096.25 213.767C1096.98 212.946 1097.34 211.755 1097.34 210.192C1097.34 208.669 1096.98 207.497 1096.25 206.677C1095.52 205.856 1094.62 205.446 1093.55 205.446C1092.48 205.446 1091.57 205.856 1090.84 206.677C1090.11 207.497 1089.74 208.679 1089.74 210.222ZM1103.37 213.562L1107.5 212.932C1107.67 213.732 1108.03 214.343 1108.57 214.763C1109.1 215.173 1109.85 215.378 1110.82 215.378C1111.89 215.378 1112.69 215.183 1113.22 214.792C1113.58 214.519 1113.77 214.152 1113.77 213.693C1113.77 213.381 1113.67 213.122 1113.47 212.917C1113.27 212.722 1112.81 212.541 1112.1 212.375C1108.78 211.643 1106.67 210.974 1105.78 210.368C1104.55 209.528 1103.94 208.361 1103.94 206.867C1103.94 205.52 1104.47 204.387 1105.53 203.469C1106.6 202.551 1108.25 202.092 1110.48 202.092C1112.61 202.092 1114.2 202.438 1115.23 203.132C1116.27 203.825 1116.98 204.851 1117.37 206.208L1113.49 206.926C1113.32 206.32 1113 205.856 1112.54 205.534C1112.08 205.212 1111.42 205.051 1110.56 205.051C1109.47 205.051 1108.7 205.202 1108.23 205.505C1107.92 205.72 1107.76 205.998 1107.76 206.34C1107.76 206.633 1107.9 206.882 1108.17 207.087C1108.54 207.36 1109.82 207.746 1112.01 208.244C1114.21 208.742 1115.74 209.353 1116.61 210.075C1117.47 210.808 1117.9 211.828 1117.9 213.137C1117.9 214.562 1117.3 215.788 1116.11 216.813C1114.92 217.839 1113.16 218.352 1110.82 218.352C1108.7 218.352 1107.02 217.922 1105.78 217.062C1104.55 216.203 1103.75 215.036 1103.37 213.562Z" fill="black"/>
<path d="M1145.1 300.547H1141.99C1141.93 300.144 1141.81 299.787 1141.64 299.474C1141.46 299.157 1141.24 298.887 1140.96 298.665C1140.69 298.442 1140.37 298.272 1140.01 298.153C1139.66 298.035 1139.27 297.976 1138.86 297.976C1138.1 297.976 1137.45 298.163 1136.89 298.537C1136.33 298.906 1135.9 299.446 1135.59 300.156C1135.28 300.862 1135.13 301.719 1135.13 302.727C1135.13 303.764 1135.28 304.635 1135.59 305.341C1135.9 306.046 1136.34 306.579 1136.89 306.939C1137.45 307.299 1138.1 307.479 1138.83 307.479C1139.25 307.479 1139.63 307.424 1139.98 307.315C1140.33 307.206 1140.65 307.048 1140.92 306.839C1141.2 306.626 1141.42 306.368 1141.6 306.065C1141.79 305.762 1141.92 305.417 1141.99 305.028L1145.1 305.043C1145.02 305.71 1144.82 306.354 1144.49 306.974C1144.18 307.59 1143.75 308.142 1143.21 308.629C1142.67 309.112 1142.03 309.496 1141.29 309.78C1140.55 310.059 1139.72 310.199 1138.78 310.199C1137.49 310.199 1136.33 309.905 1135.3 309.318C1134.29 308.731 1133.48 307.881 1132.89 306.768C1132.3 305.656 1132.01 304.309 1132.01 302.727C1132.01 301.141 1132.31 299.792 1132.9 298.679C1133.5 297.566 1134.31 296.719 1135.33 296.136C1136.36 295.549 1137.51 295.256 1138.78 295.256C1139.63 295.256 1140.41 295.374 1141.13 295.611C1141.85 295.848 1142.49 296.193 1143.05 296.648C1143.61 297.098 1144.07 297.649 1144.42 298.303C1144.77 298.956 1145 299.704 1145.1 300.547ZM1150.36 310.206C1149.66 310.206 1149.04 310.085 1148.5 309.844C1147.95 309.598 1147.52 309.235 1147.2 308.757C1146.89 308.274 1146.74 307.673 1146.74 306.953C1146.74 306.347 1146.85 305.838 1147.07 305.426C1147.29 305.014 1147.59 304.683 1147.98 304.432C1148.36 304.181 1148.8 303.991 1149.28 303.864C1149.78 303.736 1150.29 303.646 1150.83 303.594C1151.47 303.527 1151.98 303.466 1152.37 303.409C1152.76 303.348 1153.04 303.258 1153.21 303.139C1153.39 303.021 1153.48 302.846 1153.48 302.614V302.571C1153.48 302.121 1153.33 301.773 1153.05 301.527C1152.77 301.281 1152.37 301.158 1151.86 301.158C1151.31 301.158 1150.88 301.278 1150.56 301.52C1150.23 301.757 1150.02 302.055 1149.92 302.415L1147.12 302.188C1147.26 301.525 1147.54 300.952 1147.96 300.469C1148.37 299.981 1148.91 299.607 1149.57 299.347C1150.23 299.081 1151 298.949 1151.87 298.949C1152.48 298.949 1153.06 299.02 1153.61 299.162C1154.17 299.304 1154.66 299.524 1155.09 299.822C1155.53 300.121 1155.87 300.504 1156.12 300.973C1156.38 301.437 1156.5 301.993 1156.5 302.642V310H1153.63V308.487H1153.55C1153.37 308.828 1153.14 309.129 1152.84 309.389C1152.55 309.645 1152.2 309.846 1151.78 309.993C1151.37 310.135 1150.9 310.206 1150.36 310.206ZM1151.22 308.118C1151.67 308.118 1152.06 308.03 1152.4 307.855C1152.74 307.675 1153.01 307.434 1153.21 307.131C1153.4 306.828 1153.5 306.484 1153.5 306.101V304.943C1153.4 305.005 1153.27 305.062 1153.11 305.114C1152.94 305.161 1152.76 305.206 1152.56 305.249C1152.36 305.286 1152.15 305.322 1151.95 305.355C1151.74 305.384 1151.56 305.41 1151.39 305.433C1151.04 305.485 1150.73 305.568 1150.46 305.682C1150.2 305.795 1149.99 305.949 1149.85 306.143C1149.7 306.333 1149.63 306.57 1149.63 306.854C1149.63 307.266 1149.77 307.58 1150.07 307.798C1150.38 308.011 1150.76 308.118 1151.22 308.118ZM1162.87 310.178C1162.04 310.178 1161.29 309.964 1160.62 309.538C1159.95 309.107 1159.42 308.475 1159.03 307.642C1158.64 306.804 1158.44 305.777 1158.44 304.56C1158.44 303.31 1158.64 302.27 1159.05 301.442C1159.45 300.608 1159.98 299.986 1160.65 299.574C1161.32 299.157 1162.06 298.949 1162.86 298.949C1163.47 298.949 1163.98 299.053 1164.39 299.261C1164.8 299.465 1165.13 299.721 1165.38 300.028C1165.64 300.331 1165.83 300.63 1165.96 300.923H1166.06V295.455H1169.08V310H1166.09V308.253H1165.96C1165.82 308.556 1165.62 308.857 1165.36 309.155C1165.11 309.448 1164.77 309.692 1164.36 309.886C1163.95 310.08 1163.46 310.178 1162.87 310.178ZM1163.83 307.77C1164.31 307.77 1164.73 307.637 1165.06 307.372C1165.4 307.102 1165.66 306.726 1165.84 306.243C1166.03 305.76 1166.12 305.194 1166.12 304.545C1166.12 303.897 1166.03 303.333 1165.85 302.855C1165.67 302.377 1165.41 302.008 1165.07 301.747C1164.73 301.487 1164.31 301.357 1163.83 301.357C1163.33 301.357 1162.91 301.491 1162.57 301.761C1162.23 302.031 1161.97 302.405 1161.8 302.884C1161.62 303.362 1161.53 303.916 1161.53 304.545C1161.53 305.18 1161.62 305.741 1161.8 306.229C1161.98 306.712 1162.23 307.09 1162.57 307.365C1162.91 307.635 1163.33 307.77 1163.83 307.77ZM1174.67 310.206C1173.98 310.206 1173.36 310.085 1172.81 309.844C1172.27 309.598 1171.84 309.235 1171.52 308.757C1171.21 308.274 1171.05 307.673 1171.05 306.953C1171.05 306.347 1171.16 305.838 1171.39 305.426C1171.61 305.014 1171.91 304.683 1172.29 304.432C1172.68 304.181 1173.11 303.991 1173.6 303.864C1174.09 303.736 1174.61 303.646 1175.15 303.594C1175.78 303.527 1176.3 303.466 1176.68 303.409C1177.07 303.348 1177.35 303.258 1177.53 303.139C1177.7 303.021 1177.79 302.846 1177.79 302.614V302.571C1177.79 302.121 1177.65 301.773 1177.37 301.527C1177.09 301.281 1176.69 301.158 1176.17 301.158C1175.63 301.158 1175.19 301.278 1174.87 301.52C1174.55 301.757 1174.34 302.055 1174.23 302.415L1171.44 302.188C1171.58 301.525 1171.86 300.952 1172.27 300.469C1172.69 299.981 1173.23 299.607 1173.89 299.347C1174.55 299.081 1175.32 298.949 1176.19 298.949C1176.79 298.949 1177.37 299.02 1177.93 299.162C1178.49 299.304 1178.98 299.524 1179.41 299.822C1179.85 300.121 1180.19 300.504 1180.44 300.973C1180.69 301.437 1180.82 301.993 1180.82 302.642V310H1177.95V308.487H1177.86C1177.69 308.828 1177.45 309.129 1177.16 309.389C1176.87 309.645 1176.51 309.846 1176.1 309.993C1175.69 310.135 1175.21 310.206 1174.67 310.206ZM1175.54 308.118C1175.99 308.118 1176.38 308.03 1176.72 307.855C1177.06 307.675 1177.33 307.434 1177.52 307.131C1177.72 306.828 1177.81 306.484 1177.81 306.101V304.943C1177.72 305.005 1177.59 305.062 1177.42 305.114C1177.26 305.161 1177.08 305.206 1176.88 305.249C1176.67 305.286 1176.47 305.322 1176.26 305.355C1176.06 305.384 1175.88 305.41 1175.71 305.433C1175.36 305.485 1175.05 305.568 1174.78 305.682C1174.52 305.795 1174.31 305.949 1174.16 306.143C1174.02 306.333 1173.94 306.57 1173.94 306.854C1173.94 307.266 1174.09 307.58 1174.39 307.798C1174.69 308.011 1175.08 308.118 1175.54 308.118ZM1192.24 302.202L1189.47 302.372C1189.42 302.135 1189.32 301.922 1189.17 301.733C1189.01 301.539 1188.8 301.385 1188.55 301.271C1188.3 301.153 1188 301.094 1187.65 301.094C1187.18 301.094 1186.78 301.193 1186.46 301.392C1186.14 301.586 1185.98 301.847 1185.98 302.173C1185.98 302.434 1186.08 302.654 1186.29 302.834C1186.5 303.014 1186.86 303.158 1187.36 303.267L1189.34 303.665C1190.4 303.883 1191.19 304.233 1191.71 304.716C1192.23 305.199 1192.49 305.833 1192.49 306.619C1192.49 307.334 1192.28 307.962 1191.86 308.501C1191.44 309.041 1190.87 309.463 1190.14 309.766C1189.41 310.064 1188.58 310.213 1187.63 310.213C1186.19 310.213 1185.04 309.912 1184.18 309.311C1183.33 308.705 1182.83 307.881 1182.68 306.839L1185.66 306.683C1185.75 307.124 1185.97 307.46 1186.31 307.692C1186.66 307.919 1187.1 308.033 1187.64 308.033C1188.17 308.033 1188.6 307.931 1188.92 307.727C1189.24 307.519 1189.41 307.251 1189.41 306.925C1189.41 306.65 1189.29 306.425 1189.07 306.25C1188.84 306.07 1188.49 305.933 1188.02 305.838L1186.13 305.462C1185.06 305.249 1184.27 304.879 1183.75 304.354C1183.23 303.828 1182.97 303.158 1182.97 302.344C1182.97 301.643 1183.16 301.039 1183.54 300.533C1183.92 300.026 1184.46 299.635 1185.15 299.361C1185.85 299.086 1186.66 298.949 1187.6 298.949C1188.97 298.949 1190.06 299.24 1190.85 299.822C1191.64 300.405 1192.11 301.198 1192.24 302.202ZM1200.2 299.091V301.364H1193.63V299.091H1200.2ZM1195.12 296.477H1198.14V306.648C1198.14 306.927 1198.19 307.145 1198.27 307.301C1198.36 307.453 1198.48 307.559 1198.63 307.621C1198.78 307.682 1198.96 307.713 1199.17 307.713C1199.31 307.713 1199.45 307.701 1199.59 307.678C1199.74 307.649 1199.84 307.628 1199.92 307.614L1200.4 309.865C1200.24 309.912 1200.03 309.967 1199.76 310.028C1199.48 310.095 1199.15 310.135 1198.76 310.149C1198.03 310.178 1197.39 310.08 1196.84 309.858C1196.29 309.635 1195.87 309.29 1195.57 308.821C1195.26 308.352 1195.11 307.76 1195.12 307.045V296.477ZM1202.17 310V299.091H1205.1V300.994H1205.22C1205.41 300.317 1205.75 299.806 1206.22 299.46C1206.69 299.11 1207.23 298.935 1207.84 298.935C1207.99 298.935 1208.15 298.944 1208.33 298.963C1208.5 298.982 1208.66 299.008 1208.79 299.041V301.726C1208.65 301.683 1208.45 301.645 1208.2 301.612C1207.95 301.579 1207.72 301.562 1207.51 301.562C1207.06 301.562 1206.67 301.66 1206.32 301.854C1205.97 302.043 1205.7 302.308 1205.49 302.649C1205.29 302.99 1205.19 303.383 1205.19 303.828V310H1202.17ZM1213.15 310.206C1212.45 310.206 1211.83 310.085 1211.29 309.844C1210.74 309.598 1210.31 309.235 1210 308.757C1209.68 308.274 1209.53 307.673 1209.53 306.953C1209.53 306.347 1209.64 305.838 1209.86 305.426C1210.08 305.014 1210.39 304.683 1210.77 304.432C1211.15 304.181 1211.59 303.991 1212.08 303.864C1212.57 303.736 1213.09 303.646 1213.63 303.594C1214.26 303.527 1214.77 303.466 1215.16 303.409C1215.55 303.348 1215.83 303.258 1216.01 303.139C1216.18 303.021 1216.27 302.846 1216.27 302.614V302.571C1216.27 302.121 1216.13 301.773 1215.84 301.527C1215.56 301.281 1215.16 301.158 1214.65 301.158C1214.1 301.158 1213.67 301.278 1213.35 301.52C1213.03 301.757 1212.81 302.055 1212.71 302.415L1209.91 302.188C1210.05 301.525 1210.33 300.952 1210.75 300.469C1211.17 299.981 1211.7 299.607 1212.36 299.347C1213.02 299.081 1213.79 298.949 1214.66 298.949C1215.27 298.949 1215.85 299.02 1216.4 299.162C1216.96 299.304 1217.46 299.524 1217.89 299.822C1218.32 300.121 1218.67 300.504 1218.92 300.973C1219.17 301.437 1219.29 301.993 1219.29 302.642V310H1216.42V308.487H1216.34C1216.16 308.828 1215.93 309.129 1215.64 309.389C1215.34 309.645 1214.99 309.846 1214.58 309.993C1214.17 310.135 1213.69 310.206 1213.15 310.206ZM1214.02 308.118C1214.46 308.118 1214.85 308.03 1215.2 307.855C1215.54 307.675 1215.8 307.434 1216 307.131C1216.19 306.828 1216.29 306.484 1216.29 306.101V304.943C1216.19 305.005 1216.06 305.062 1215.9 305.114C1215.74 305.161 1215.56 305.206 1215.35 305.249C1215.15 305.286 1214.94 305.322 1214.74 305.355C1214.54 305.384 1214.35 305.41 1214.19 305.433C1213.83 305.485 1213.52 305.568 1213.26 305.682C1212.99 305.795 1212.79 305.949 1212.64 306.143C1212.49 306.333 1212.42 306.57 1212.42 306.854C1212.42 307.266 1212.57 307.58 1212.87 307.798C1213.17 308.011 1213.55 308.118 1214.02 308.118ZM1221.64 310V299.091H1224.57V300.994H1224.69C1224.89 300.317 1225.22 299.806 1225.69 299.46C1226.16 299.11 1226.7 298.935 1227.31 298.935C1227.46 298.935 1227.62 298.944 1227.8 298.963C1227.97 298.982 1228.13 299.008 1228.26 299.041V301.726C1228.12 301.683 1227.92 301.645 1227.67 301.612C1227.42 301.579 1227.19 301.562 1226.98 301.562C1226.54 301.562 1226.14 301.66 1225.79 301.854C1225.44 302.043 1225.17 302.308 1224.96 302.649C1224.77 302.99 1224.67 303.383 1224.67 303.828V310H1221.64Z" fill="#2F2F2F" fill-opacity="0.8"/>
<rect x="690" y="665" width="551" height="50" rx="8" fill="#0043CE"/>
<path d="M939.264 697V682.455H942.339V694.464H948.575V697H939.264ZM955.484 697.213C954.381 697.213 953.427 696.979 952.622 696.51C951.822 696.036 951.204 695.378 950.768 694.536C950.333 693.688 950.115 692.705 950.115 691.588C950.115 690.461 950.333 689.476 950.768 688.634C951.204 687.786 951.822 687.128 952.622 686.659C953.427 686.186 954.381 685.949 955.484 685.949C956.587 685.949 957.539 686.186 958.339 686.659C959.144 687.128 959.764 687.786 960.2 688.634C960.636 689.476 960.853 690.461 960.853 691.588C960.853 692.705 960.636 693.688 960.2 694.536C959.764 695.378 959.144 696.036 958.339 696.51C957.539 696.979 956.587 697.213 955.484 697.213ZM955.498 694.869C956 694.869 956.419 694.727 956.755 694.443C957.092 694.154 957.345 693.761 957.515 693.264C957.69 692.767 957.778 692.201 957.778 691.567C957.778 690.932 957.69 690.366 957.515 689.869C957.345 689.372 957.092 688.979 956.755 688.69C956.419 688.402 956 688.257 955.498 688.257C954.992 688.257 954.565 688.402 954.22 688.69C953.879 688.979 953.621 689.372 953.446 689.869C953.275 690.366 953.19 690.932 953.19 691.567C953.19 692.201 953.275 692.767 953.446 693.264C953.621 693.761 953.879 694.154 954.22 694.443C954.565 694.727 954.992 694.869 955.498 694.869ZM967.735 701.318C966.755 701.318 965.915 701.183 965.214 700.913C964.518 700.648 963.964 700.286 963.552 699.827C963.14 699.367 962.873 698.851 962.75 698.278L965.548 697.902C965.633 698.12 965.768 698.323 965.953 698.513C966.137 698.702 966.381 698.854 966.684 698.967C966.992 699.086 967.366 699.145 967.806 699.145C968.465 699.145 969.007 698.984 969.433 698.662C969.864 698.345 970.079 697.812 970.079 697.064V695.068H969.951C969.819 695.371 969.62 695.658 969.355 695.928C969.09 696.197 968.749 696.418 968.332 696.588C967.915 696.759 967.418 696.844 966.841 696.844C966.021 696.844 965.276 696.654 964.603 696.276C963.936 695.892 963.403 695.307 963.005 694.521C962.612 693.731 962.416 692.732 962.416 691.524C962.416 690.288 962.617 689.256 963.02 688.428C963.422 687.599 963.957 686.979 964.625 686.567C965.297 686.155 966.033 685.949 966.833 685.949C967.444 685.949 967.956 686.053 968.368 686.261C968.779 686.465 969.111 686.721 969.362 687.028C969.618 687.331 969.814 687.63 969.951 687.923H970.065V686.091H973.069V697.107C973.069 698.035 972.842 698.811 972.387 699.436C971.933 700.061 971.303 700.53 970.498 700.842C969.698 701.16 968.777 701.318 967.735 701.318ZM967.799 694.571C968.287 694.571 968.699 694.45 969.035 694.209C969.376 693.963 969.636 693.612 969.816 693.158C970.001 692.698 970.093 692.149 970.093 691.51C970.093 690.871 970.003 690.317 969.824 689.848C969.644 689.375 969.383 689.008 969.042 688.747C968.701 688.487 968.287 688.357 967.799 688.357C967.302 688.357 966.883 688.491 966.542 688.761C966.201 689.027 965.943 689.396 965.768 689.869C965.593 690.343 965.505 690.89 965.505 691.51C965.505 692.14 965.593 692.684 965.768 693.143C965.948 693.598 966.206 693.951 966.542 694.202C966.883 694.448 967.302 694.571 967.799 694.571ZM975.477 697V686.091H978.502V697H975.477ZM976.997 684.685C976.547 684.685 976.161 684.536 975.839 684.237C975.522 683.934 975.363 683.572 975.363 683.151C975.363 682.734 975.522 682.376 975.839 682.078C976.161 681.775 976.547 681.624 976.997 681.624C977.447 681.624 977.83 681.775 978.147 682.078C978.469 682.376 978.63 682.734 978.63 683.151C978.63 683.572 978.469 683.934 978.147 684.237C977.83 684.536 977.447 684.685 976.997 684.685ZM983.952 690.693V697H980.926V686.091H983.81V688.016H983.938C984.179 687.381 984.584 686.879 985.152 686.51C985.72 686.136 986.409 685.949 987.219 685.949C987.976 685.949 988.637 686.115 989.2 686.446C989.764 686.777 990.202 687.251 990.514 687.866C990.827 688.477 990.983 689.206 990.983 690.054V697H987.957V690.594C987.962 689.926 987.792 689.405 987.446 689.031C987.1 688.652 986.625 688.463 986.018 688.463C985.611 688.463 985.251 688.551 984.939 688.726C984.631 688.901 984.39 689.157 984.214 689.493C984.044 689.824 983.956 690.224 983.952 690.693Z" fill="white"/>
<path d="M867.761 758V743.455H876.54V745.017H869.523V749.932H876.085V751.494H869.523V756.438H876.653V758H867.761ZM887.214 749.534L885.709 749.96C885.614 749.709 885.474 749.465 885.29 749.229C885.11 748.987 884.864 748.788 884.551 748.632C884.239 748.476 883.839 748.398 883.351 748.398C882.683 748.398 882.127 748.552 881.682 748.859C881.241 749.162 881.021 749.548 881.021 750.017C881.021 750.434 881.173 750.763 881.476 751.004C881.779 751.246 882.252 751.447 882.896 751.608L884.516 752.006C885.491 752.242 886.218 752.605 886.696 753.092C887.174 753.575 887.413 754.198 887.413 754.96C887.413 755.585 887.233 756.144 886.874 756.636C886.518 757.129 886.021 757.517 885.382 757.801C884.743 758.085 884 758.227 883.152 758.227C882.039 758.227 881.118 757.986 880.389 757.503C879.66 757.02 879.198 756.314 879.004 755.386L880.595 754.989C880.747 755.576 881.033 756.016 881.455 756.31C881.881 756.603 882.437 756.75 883.124 756.75C883.905 756.75 884.525 756.584 884.984 756.253C885.448 755.917 885.68 755.514 885.68 755.045C885.68 754.667 885.548 754.349 885.283 754.094C885.018 753.833 884.61 753.639 884.061 753.511L882.243 753.085C881.244 752.848 880.51 752.482 880.041 751.984C879.577 751.482 879.345 750.855 879.345 750.102C879.345 749.487 879.518 748.942 879.864 748.469C880.214 747.995 880.69 747.624 881.291 747.354C881.897 747.084 882.584 746.949 883.351 746.949C884.43 746.949 885.278 747.186 885.893 747.659C886.514 748.133 886.954 748.758 887.214 749.534ZM897.38 762.091V756.324H897.238C897.114 756.523 896.939 756.774 896.712 757.077C896.485 757.375 896.16 757.643 895.739 757.879C895.318 758.111 894.757 758.227 894.056 758.227C893.147 758.227 892.344 757.998 891.648 757.538C890.952 757.074 890.408 756.421 890.015 755.578C889.622 754.731 889.425 753.729 889.425 752.574C889.425 751.428 889.622 750.434 890.015 749.591C890.408 748.748 890.954 748.097 891.655 747.638C892.356 747.179 893.166 746.949 894.084 746.949C894.794 746.949 895.355 747.067 895.767 747.304C896.184 747.536 896.501 747.801 896.719 748.099C896.942 748.393 897.114 748.634 897.238 748.824H897.436V747.091H899.056V762.091H897.38ZM894.283 756.722C894.955 756.722 895.524 756.546 895.988 756.196C896.452 755.841 896.804 755.351 897.046 754.726C897.287 754.096 897.408 753.369 897.408 752.545C897.408 751.731 897.29 751.018 897.053 750.408C896.816 749.792 896.466 749.314 896.002 748.973C895.538 748.627 894.965 748.455 894.283 748.455C893.573 748.455 892.981 748.637 892.507 749.001C892.039 749.361 891.686 749.851 891.449 750.472C891.217 751.087 891.101 751.778 891.101 752.545C891.101 753.322 891.22 754.027 891.456 754.662C891.698 755.292 892.053 755.794 892.522 756.168C892.995 756.537 893.582 756.722 894.283 756.722ZM908.999 753.54V747.091H910.675V758H908.999V756.153H908.885C908.63 756.707 908.232 757.179 907.692 757.567C907.152 757.95 906.471 758.142 905.647 758.142C904.965 758.142 904.359 757.993 903.828 757.695C903.298 757.392 902.882 756.937 902.578 756.331C902.275 755.72 902.124 754.951 902.124 754.023V747.091H903.8V753.909C903.8 754.705 904.023 755.339 904.468 755.812C904.917 756.286 905.49 756.523 906.186 756.523C906.603 756.523 907.027 756.416 907.458 756.203C907.893 755.99 908.258 755.663 908.551 755.223C908.85 754.783 908.999 754.222 908.999 753.54ZM918.319 758.227C917.268 758.227 916.361 757.995 915.599 757.531C914.841 757.062 914.256 756.409 913.844 755.571C913.437 754.728 913.234 753.748 913.234 752.631C913.234 751.513 913.437 750.528 913.844 749.676C914.256 748.819 914.829 748.152 915.563 747.673C916.302 747.19 917.164 746.949 918.148 746.949C918.717 746.949 919.278 747.044 919.832 747.233C920.386 747.422 920.89 747.73 921.344 748.156C921.799 748.578 922.161 749.136 922.431 749.832C922.701 750.528 922.836 751.385 922.836 752.403V753.114H914.427V751.665H921.131C921.131 751.049 921.008 750.5 920.762 750.017C920.521 749.534 920.175 749.153 919.725 748.874C919.28 748.594 918.754 748.455 918.148 748.455C917.481 748.455 916.903 748.62 916.415 748.952C915.933 749.278 915.561 749.705 915.3 750.23C915.04 750.756 914.91 751.319 914.91 751.92V752.886C914.91 753.71 915.052 754.409 915.336 754.982C915.625 755.55 916.025 755.983 916.536 756.281C917.048 756.575 917.642 756.722 918.319 756.722C918.759 756.722 919.157 756.66 919.512 756.537C919.872 756.409 920.182 756.22 920.442 755.969C920.703 755.713 920.904 755.396 921.046 755.017L922.665 755.472C922.495 756.021 922.209 756.504 921.806 756.92C921.404 757.332 920.906 757.654 920.315 757.886C919.723 758.114 919.058 758.227 918.319 758.227ZM929.817 758.227C928.795 758.227 927.914 757.986 927.175 757.503C926.437 757.02 925.869 756.355 925.471 755.507C925.073 754.66 924.874 753.691 924.874 752.602C924.874 751.494 925.078 750.517 925.485 749.669C925.897 748.817 926.47 748.152 927.204 747.673C927.942 747.19 928.804 746.949 929.789 746.949C930.556 746.949 931.247 747.091 931.863 747.375C932.478 747.659 932.983 748.057 933.376 748.568C933.769 749.08 934.013 749.676 934.107 750.358H932.431C932.303 749.861 932.019 749.42 931.579 749.037C931.143 748.649 930.556 748.455 929.817 748.455C929.164 748.455 928.591 748.625 928.099 748.966C927.611 749.302 927.23 749.778 926.955 750.393C926.685 751.004 926.55 751.722 926.55 752.545C926.55 753.388 926.683 754.122 926.948 754.747C927.218 755.372 927.597 755.857 928.085 756.203C928.577 756.549 929.155 756.722 929.817 756.722C930.253 756.722 930.648 756.646 931.004 756.494C931.359 756.343 931.659 756.125 931.906 755.841C932.152 755.557 932.327 755.216 932.431 754.818H934.107C934.013 755.462 933.778 756.042 933.404 756.558C933.035 757.07 932.545 757.477 931.934 757.78C931.328 758.078 930.622 758.227 929.817 758.227ZM936.558 758V747.091H938.234V758H936.558ZM937.41 745.273C937.083 745.273 936.801 745.161 936.565 744.939C936.333 744.716 936.217 744.449 936.217 744.136C936.217 743.824 936.333 743.556 936.565 743.334C936.801 743.111 937.083 743 937.41 743C937.737 743 938.016 743.111 938.248 743.334C938.485 743.556 938.603 743.824 938.603 744.136C938.603 744.449 938.485 744.716 938.248 744.939C938.016 745.161 937.737 745.273 937.41 745.273ZM946.929 758V747.091H948.548V748.795H948.69C948.917 748.213 949.284 747.761 949.791 747.439C950.297 747.112 950.906 746.949 951.616 746.949C952.336 746.949 952.935 747.112 953.413 747.439C953.896 747.761 954.272 748.213 954.542 748.795H954.656C954.935 748.232 955.354 747.785 955.913 747.453C956.472 747.117 957.142 746.949 957.923 746.949C958.898 746.949 959.696 747.254 960.316 747.865C960.937 748.471 961.247 749.416 961.247 750.699V758H959.571V750.699C959.571 749.894 959.35 749.319 958.91 748.973C958.47 748.627 957.951 748.455 957.355 748.455C956.588 748.455 955.993 748.687 955.572 749.151C955.151 749.61 954.94 750.192 954.94 750.898V758H953.235V750.528C953.235 749.908 953.034 749.409 952.632 749.03C952.229 748.646 951.711 748.455 951.076 748.455C950.641 748.455 950.234 748.571 949.855 748.803C949.481 749.035 949.178 749.357 948.946 749.768C948.718 750.176 948.605 750.647 948.605 751.182V758H946.929ZM964.311 758V747.091H965.988V758H964.311ZM965.164 745.273C964.837 745.273 964.555 745.161 964.319 744.939C964.087 744.716 963.971 744.449 963.971 744.136C963.971 743.824 964.087 743.556 964.319 743.334C964.555 743.111 964.837 743 965.164 743C965.49 743 965.77 743.111 966.002 743.334C966.239 743.556 966.357 743.824 966.357 744.136C966.357 744.449 966.239 744.716 966.002 744.939C965.77 745.161 965.49 745.273 965.164 745.273ZM970.734 751.438V758H969.058V747.091H970.677V748.795H970.819C971.075 748.241 971.463 747.796 971.984 747.46C972.504 747.119 973.177 746.949 974.001 746.949C974.739 746.949 975.386 747.1 975.94 747.403C976.494 747.702 976.924 748.156 977.232 748.767C977.54 749.373 977.694 750.14 977.694 751.068V758H976.018V751.182C976.018 750.325 975.795 749.657 975.35 749.179C974.905 748.696 974.294 748.455 973.518 748.455C972.983 748.455 972.504 748.571 972.083 748.803C971.666 749.035 971.337 749.373 971.096 749.818C970.854 750.263 970.734 750.803 970.734 751.438ZM982.433 751.438V758H980.757V743.455H982.433V748.795H982.575C982.831 748.232 983.214 747.785 983.725 747.453C984.242 747.117 984.928 746.949 985.785 746.949C986.529 746.949 987.18 747.098 987.738 747.396C988.297 747.69 988.73 748.142 989.038 748.753C989.35 749.359 989.507 750.131 989.507 751.068V758H987.831V751.182C987.831 750.315 987.606 749.645 987.156 749.172C986.711 748.694 986.093 748.455 985.302 748.455C984.753 748.455 984.261 748.571 983.825 748.803C983.394 749.035 983.053 749.373 982.802 749.818C982.556 750.263 982.433 750.803 982.433 751.438ZM995.783 758.256C995.092 758.256 994.465 758.125 993.901 757.865C993.338 757.6 992.89 757.219 992.559 756.722C992.228 756.22 992.062 755.614 992.062 754.903C992.062 754.278 992.185 753.772 992.431 753.384C992.677 752.991 993.006 752.683 993.418 752.46C993.83 752.238 994.285 752.072 994.782 751.963C995.284 751.849 995.788 751.759 996.295 751.693C996.958 751.608 997.495 751.544 997.907 751.501C998.324 751.454 998.627 751.376 998.816 751.267C999.01 751.158 999.107 750.969 999.107 750.699V750.642C999.107 749.941 998.915 749.397 998.532 749.009C998.153 748.62 997.578 748.426 996.806 748.426C996.006 748.426 995.379 748.601 994.924 748.952C994.469 749.302 994.15 749.676 993.965 750.074L992.374 749.506C992.658 748.843 993.037 748.327 993.511 747.957C993.989 747.583 994.51 747.323 995.073 747.176C995.641 747.025 996.2 746.949 996.749 746.949C997.1 746.949 997.502 746.991 997.957 747.077C998.416 747.157 998.859 747.325 999.285 747.581C999.716 747.837 1000.07 748.223 1000.36 748.739C1000.64 749.255 1000.78 749.946 1000.78 750.812V758H999.107V756.523H999.022C998.908 756.759 998.719 757.013 998.454 757.283C998.189 757.553 997.836 757.782 997.396 757.972C996.955 758.161 996.418 758.256 995.783 758.256ZM996.039 756.75C996.702 756.75 997.261 756.62 997.715 756.359C998.174 756.099 998.52 755.763 998.752 755.351C998.989 754.939 999.107 754.506 999.107 754.051V752.517C999.036 752.602 998.88 752.68 998.638 752.751C998.402 752.818 998.127 752.877 997.815 752.929C997.507 752.976 997.206 753.019 996.913 753.057C996.624 753.09 996.389 753.118 996.21 753.142C995.774 753.199 995.367 753.291 994.988 753.419C994.614 753.542 994.311 753.729 994.079 753.98C993.852 754.226 993.738 754.562 993.738 754.989C993.738 755.571 993.953 756.011 994.384 756.31C994.82 756.603 995.371 756.75 996.039 756.75ZM1017.19 749.534L1015.69 749.96C1015.59 749.709 1015.45 749.465 1015.27 749.229C1015.09 748.987 1014.84 748.788 1014.53 748.632C1014.22 748.476 1013.82 748.398 1013.33 748.398C1012.66 748.398 1012.11 748.552 1011.66 748.859C1011.22 749.162 1011 749.548 1011 750.017C1011 750.434 1011.15 750.763 1011.46 751.004C1011.76 751.246 1012.23 751.447 1012.88 751.608L1014.5 752.006C1015.47 752.242 1016.2 752.605 1016.68 753.092C1017.15 753.575 1017.39 754.198 1017.39 754.96C1017.39 755.585 1017.21 756.144 1016.85 756.636C1016.5 757.129 1016 757.517 1015.36 757.801C1014.72 758.085 1013.98 758.227 1013.13 758.227C1012.02 758.227 1011.1 757.986 1010.37 757.503C1009.64 757.02 1009.18 756.314 1008.98 755.386L1010.58 754.989C1010.73 755.576 1011.01 756.016 1011.44 756.31C1011.86 756.603 1012.42 756.75 1013.1 756.75C1013.89 756.75 1014.51 756.584 1014.96 756.253C1015.43 755.917 1015.66 755.514 1015.66 755.045C1015.66 754.667 1015.53 754.349 1015.26 754.094C1015 753.833 1014.59 753.639 1014.04 753.511L1012.22 753.085C1011.22 752.848 1010.49 752.482 1010.02 751.984C1009.56 751.482 1009.33 750.855 1009.33 750.102C1009.33 749.487 1009.5 748.942 1009.84 748.469C1010.19 747.995 1010.67 747.624 1011.27 747.354C1011.88 747.084 1012.56 746.949 1013.33 746.949C1014.41 746.949 1015.26 747.186 1015.87 747.659C1016.49 748.133 1016.93 748.758 1017.19 749.534ZM1024.49 758.227C1023.44 758.227 1022.53 757.995 1021.77 757.531C1021.01 757.062 1020.43 756.409 1020.02 755.571C1019.61 754.728 1019.41 753.748 1019.41 752.631C1019.41 751.513 1019.61 750.528 1020.02 749.676C1020.43 748.819 1021 748.152 1021.74 747.673C1022.47 747.19 1023.34 746.949 1024.32 746.949C1024.89 746.949 1025.45 747.044 1026 747.233C1026.56 747.422 1027.06 747.73 1027.52 748.156C1027.97 748.578 1028.33 749.136 1028.6 749.832C1028.87 750.528 1029.01 751.385 1029.01 752.403V753.114H1020.6V751.665H1027.3C1027.3 751.049 1027.18 750.5 1026.93 750.017C1026.69 749.534 1026.35 749.153 1025.9 748.874C1025.45 748.594 1024.93 748.455 1024.32 748.455C1023.65 748.455 1023.08 748.62 1022.59 748.952C1022.1 749.278 1021.73 749.705 1021.47 750.23C1021.21 750.756 1021.08 751.319 1021.08 751.92V752.886C1021.08 753.71 1021.22 754.409 1021.51 754.982C1021.8 755.55 1022.2 755.983 1022.71 756.281C1023.22 756.575 1023.81 756.722 1024.49 756.722C1024.93 756.722 1025.33 756.66 1025.68 756.537C1026.04 756.409 1026.35 756.22 1026.61 755.969C1026.87 755.713 1027.08 755.396 1027.22 755.017L1028.84 755.472C1028.67 756.021 1028.38 756.504 1027.98 756.92C1027.58 757.332 1027.08 757.654 1026.49 757.886C1025.89 758.114 1025.23 758.227 1024.49 758.227ZM1033.23 751.438V758H1031.56V747.091H1033.18V748.795H1033.32C1033.57 748.241 1033.96 747.796 1034.48 747.46C1035 747.119 1035.68 746.949 1036.5 746.949C1037.24 746.949 1037.89 747.1 1038.44 747.403C1038.99 747.702 1039.42 748.156 1039.73 748.767C1040.04 749.373 1040.19 750.14 1040.19 751.068V758H1038.52V751.182C1038.52 750.325 1038.3 749.657 1037.85 749.179C1037.41 748.696 1036.79 748.455 1036.02 748.455C1035.48 748.455 1035 748.571 1034.58 748.803C1034.17 749.035 1033.84 749.373 1033.6 749.818C1033.35 750.263 1033.23 750.803 1033.23 751.438ZM1044.93 751.438V758H1043.26V743.455H1044.93V748.795H1045.07C1045.33 748.232 1045.71 747.785 1046.23 747.453C1046.74 747.117 1047.43 746.949 1048.29 746.949C1049.03 746.949 1049.68 747.098 1050.24 747.396C1050.8 747.69 1051.23 748.142 1051.54 748.753C1051.85 749.359 1052.01 750.131 1052.01 751.068V758H1050.33V751.182C1050.33 750.315 1050.11 749.645 1049.66 749.172C1049.21 748.694 1048.59 748.455 1047.8 748.455C1047.25 748.455 1046.76 748.571 1046.32 748.803C1045.89 749.035 1045.55 749.373 1045.3 749.818C1045.06 750.263 1044.93 750.803 1044.93 751.438ZM1058.28 758.256C1057.59 758.256 1056.96 758.125 1056.4 757.865C1055.84 757.6 1055.39 757.219 1055.06 756.722C1054.73 756.22 1054.56 755.614 1054.56 754.903C1054.56 754.278 1054.68 753.772 1054.93 753.384C1055.18 752.991 1055.51 752.683 1055.92 752.46C1056.33 752.238 1056.78 752.072 1057.28 751.963C1057.78 751.849 1058.29 751.759 1058.79 751.693C1059.46 751.608 1060 751.544 1060.41 751.501C1060.82 751.454 1061.13 751.376 1061.32 751.267C1061.51 751.158 1061.61 750.969 1061.61 750.699V750.642C1061.61 749.941 1061.42 749.397 1061.03 749.009C1060.65 748.62 1060.08 748.426 1059.31 748.426C1058.51 748.426 1057.88 748.601 1057.42 748.952C1056.97 749.302 1056.65 749.676 1056.47 750.074L1054.87 749.506C1055.16 748.843 1055.54 748.327 1056.01 747.957C1056.49 747.583 1057.01 747.323 1057.57 747.176C1058.14 747.025 1058.7 746.949 1059.25 746.949C1059.6 746.949 1060 746.991 1060.46 747.077C1060.92 747.157 1061.36 747.325 1061.78 747.581C1062.22 747.837 1062.57 748.223 1062.86 748.739C1063.14 749.255 1063.28 749.946 1063.28 750.812V758H1061.61V756.523H1061.52C1061.41 756.759 1061.22 757.013 1060.95 757.283C1060.69 757.553 1060.34 757.782 1059.9 757.972C1059.46 758.161 1058.92 758.256 1058.28 758.256ZM1058.54 756.75C1059.2 756.75 1059.76 756.62 1060.22 756.359C1060.67 756.099 1061.02 755.763 1061.25 755.351C1061.49 754.939 1061.61 754.506 1061.61 754.051V752.517C1061.54 752.602 1061.38 752.68 1061.14 752.751C1060.9 752.818 1060.63 752.877 1060.31 752.929C1060.01 752.976 1059.71 753.019 1059.41 753.057C1059.12 753.09 1058.89 753.118 1058.71 753.142C1058.27 753.199 1057.87 753.291 1057.49 753.419C1057.11 753.542 1056.81 753.729 1056.58 753.98C1056.35 754.226 1056.24 754.562 1056.24 754.989C1056.24 755.571 1056.45 756.011 1056.88 756.31C1057.32 756.603 1057.87 756.75 1058.54 756.75Z" fill="#0043CE"/>
<rect x="565" y="278" width="385" height="50" rx="8" fill="#EDEDED"/>
<path d="M730.264 308V293.455H740.065V295.99H733.339V299.456H739.561V301.991H733.339V305.464H740.094V308H730.264ZM745.479 301.693V308H742.453V297.091H745.337V299.016H745.465C745.706 298.381 746.111 297.879 746.679 297.51C747.248 297.136 747.936 296.949 748.746 296.949C749.504 296.949 750.164 297.115 750.728 297.446C751.291 297.777 751.729 298.251 752.042 298.866C752.354 299.477 752.51 300.206 752.51 301.054V308H749.485V301.594C749.489 300.926 749.319 300.405 748.973 300.031C748.628 299.652 748.152 299.463 747.546 299.463C747.139 299.463 746.779 299.551 746.466 299.726C746.158 299.901 745.917 300.157 745.742 300.493C745.571 300.824 745.484 301.224 745.479 301.693ZM760.697 297.091V299.364H754.128V297.091H760.697ZM755.619 294.477H758.645V304.648C758.645 304.927 758.688 305.145 758.773 305.301C758.858 305.453 758.976 305.559 759.128 305.621C759.284 305.682 759.464 305.713 759.668 305.713C759.81 305.713 759.952 305.701 760.094 305.678C760.236 305.649 760.345 305.628 760.42 305.614L760.896 307.865C760.745 307.912 760.532 307.967 760.257 308.028C759.982 308.095 759.649 308.135 759.256 308.149C758.527 308.178 757.887 308.08 757.338 307.858C756.794 307.635 756.37 307.29 756.067 306.821C755.764 306.352 755.615 305.76 755.619 305.045V294.477ZM762.668 308V297.091H765.602V298.994H765.715C765.914 298.317 766.248 297.806 766.717 297.46C767.185 297.11 767.725 296.935 768.336 296.935C768.487 296.935 768.651 296.944 768.826 296.963C769.001 296.982 769.155 297.008 769.288 297.041V299.726C769.146 299.683 768.949 299.645 768.698 299.612C768.447 299.579 768.218 299.562 768.009 299.562C767.564 299.562 767.166 299.66 766.816 299.854C766.47 300.043 766.196 300.308 765.992 300.649C765.793 300.99 765.694 301.383 765.694 301.828V308H762.668ZM773.65 308.206C772.954 308.206 772.334 308.085 771.789 307.844C771.245 307.598 770.814 307.235 770.497 306.757C770.184 306.274 770.028 305.673 770.028 304.953C770.028 304.347 770.139 303.838 770.362 303.426C770.584 303.014 770.887 302.683 771.271 302.432C771.654 302.181 772.09 301.991 772.578 301.864C773.07 301.736 773.586 301.646 774.126 301.594C774.761 301.527 775.272 301.466 775.66 301.409C776.048 301.348 776.33 301.258 776.505 301.139C776.681 301.021 776.768 300.846 776.768 300.614V300.571C776.768 300.121 776.626 299.773 776.342 299.527C776.063 299.281 775.665 299.158 775.149 299.158C774.604 299.158 774.171 299.278 773.849 299.52C773.527 299.757 773.314 300.055 773.21 300.415L770.412 300.188C770.554 299.525 770.833 298.952 771.25 298.469C771.666 297.981 772.204 297.607 772.862 297.347C773.525 297.081 774.292 296.949 775.163 296.949C775.769 296.949 776.349 297.02 776.903 297.162C777.462 297.304 777.957 297.524 778.387 297.822C778.823 298.121 779.166 298.504 779.417 298.973C779.668 299.437 779.794 299.993 779.794 300.642V308H776.924V306.487H776.839C776.664 306.828 776.43 307.129 776.136 307.389C775.842 307.645 775.49 307.846 775.078 307.993C774.666 308.135 774.19 308.206 773.65 308.206ZM774.517 306.118C774.962 306.118 775.355 306.03 775.696 305.855C776.037 305.675 776.304 305.434 776.498 305.131C776.692 304.828 776.789 304.484 776.789 304.101V302.943C776.695 303.005 776.565 303.062 776.399 303.114C776.238 303.161 776.056 303.206 775.852 303.249C775.648 303.286 775.445 303.322 775.241 303.355C775.038 303.384 774.853 303.41 774.687 303.433C774.332 303.485 774.022 303.568 773.757 303.682C773.492 303.795 773.286 303.949 773.139 304.143C772.992 304.333 772.919 304.57 772.919 304.854C772.919 305.266 773.068 305.58 773.366 305.798C773.669 306.011 774.053 306.118 774.517 306.118ZM782.141 308V297.091H785.074V298.994H785.188C785.387 298.317 785.721 297.806 786.189 297.46C786.658 297.11 787.198 296.935 787.809 296.935C787.96 296.935 788.123 296.944 788.299 296.963C788.474 296.982 788.628 297.008 788.76 297.041V299.726C788.618 299.683 788.422 299.645 788.171 299.612C787.92 299.579 787.69 299.562 787.482 299.562C787.037 299.562 786.639 299.66 786.289 299.854C785.943 300.043 785.668 300.308 785.465 300.649C785.266 300.99 785.167 301.383 785.167 301.828V308H782.141Z" fill="#2F2F2F"/>
<rect x="685" y="452" width="551" height="50" rx="8" fill="#EDEDED"/>
<path d="M686.761 440V425.455H695.54V427.017H688.523V431.932H695.085V433.494H688.523V438.438H695.653V440H686.761ZM704.737 432.983V434.545H698.374V432.983H704.737ZM707.686 440V429.091H709.306V430.795H709.448C709.675 430.213 710.042 429.761 710.549 429.439C711.055 429.112 711.664 428.949 712.374 428.949C713.094 428.949 713.693 429.112 714.171 429.439C714.654 429.761 715.03 430.213 715.3 430.795H715.414C715.693 430.232 716.112 429.785 716.671 429.453C717.23 429.117 717.9 428.949 718.681 428.949C719.656 428.949 720.454 429.254 721.074 429.865C721.694 430.471 722.005 431.416 722.005 432.699V440H720.328V432.699C720.328 431.894 720.108 431.319 719.668 430.973C719.228 430.627 718.709 430.455 718.113 430.455C717.346 430.455 716.751 430.687 716.33 431.151C715.908 431.61 715.698 432.192 715.698 432.898V440H713.993V432.528C713.993 431.908 713.792 431.409 713.39 431.03C712.987 430.646 712.469 430.455 711.834 430.455C711.399 430.455 710.991 430.571 710.613 430.803C710.239 431.035 709.935 431.357 709.703 431.768C709.476 432.176 709.363 432.647 709.363 433.182V440H707.686ZM728.279 440.256C727.588 440.256 726.961 440.125 726.397 439.865C725.834 439.6 725.386 439.219 725.055 438.722C724.724 438.22 724.558 437.614 724.558 436.903C724.558 436.278 724.681 435.772 724.927 435.384C725.173 434.991 725.502 434.683 725.914 434.46C726.326 434.238 726.781 434.072 727.278 433.963C727.78 433.849 728.284 433.759 728.791 433.693C729.454 433.608 729.991 433.544 730.403 433.501C730.82 433.454 731.123 433.376 731.312 433.267C731.506 433.158 731.603 432.969 731.603 432.699V432.642C731.603 431.941 731.412 431.397 731.028 431.009C730.649 430.62 730.074 430.426 729.302 430.426C728.502 430.426 727.875 430.601 727.42 430.952C726.966 431.302 726.646 431.676 726.461 432.074L724.87 431.506C725.154 430.843 725.533 430.327 726.007 429.957C726.485 429.583 727.006 429.323 727.569 429.176C728.137 429.025 728.696 428.949 729.245 428.949C729.596 428.949 729.998 428.991 730.453 429.077C730.912 429.157 731.355 429.325 731.781 429.581C732.212 429.837 732.569 430.223 732.853 430.739C733.137 431.255 733.279 431.946 733.279 432.812V440H731.603V438.523H731.518C731.404 438.759 731.215 439.013 730.95 439.283C730.685 439.553 730.332 439.782 729.892 439.972C729.451 440.161 728.914 440.256 728.279 440.256ZM728.535 438.75C729.198 438.75 729.757 438.62 730.211 438.359C730.671 438.099 731.016 437.763 731.248 437.351C731.485 436.939 731.603 436.506 731.603 436.051V434.517C731.532 434.602 731.376 434.68 731.135 434.751C730.898 434.818 730.623 434.877 730.311 434.929C730.003 434.976 729.702 435.019 729.409 435.057C729.12 435.09 728.886 435.118 728.706 435.142C728.27 435.199 727.863 435.291 727.484 435.419C727.11 435.542 726.807 435.729 726.575 435.98C726.348 436.226 726.234 436.562 726.234 436.989C726.234 437.571 726.449 438.011 726.88 438.31C727.316 438.603 727.868 438.75 728.535 438.75ZM736.339 440V429.091H738.015V440H736.339ZM737.191 427.273C736.864 427.273 736.583 427.161 736.346 426.939C736.114 426.716 735.998 426.449 735.998 426.136C735.998 425.824 736.114 425.556 736.346 425.334C736.583 425.111 736.864 425 737.191 425C737.518 425 737.797 425.111 738.029 425.334C738.266 425.556 738.384 425.824 738.384 426.136C738.384 426.449 738.266 426.716 738.029 426.939C737.797 427.161 737.518 427.273 737.191 427.273ZM742.761 425.455V440H741.085V425.455H742.761Z" fill="black"/>
<path d="M714.25 484H709.761V469.455H714.449C715.86 469.455 717.067 469.746 718.071 470.328C719.075 470.906 719.844 471.737 720.379 472.821C720.914 473.901 721.182 475.193 721.182 476.699C721.182 478.214 720.912 479.518 720.372 480.612C719.832 481.701 719.046 482.539 718.014 483.126C716.982 483.709 715.727 484 714.25 484ZM711.523 482.438H714.136C715.339 482.438 716.336 482.205 717.126 481.741C717.917 481.277 718.507 480.617 718.895 479.76C719.283 478.903 719.477 477.883 719.477 476.699C719.477 475.525 719.286 474.514 718.902 473.666C718.518 472.814 717.946 472.161 717.183 471.706C716.421 471.247 715.472 471.017 714.335 471.017H711.523V482.438ZM723.909 484V473.091H725.585V484H723.909ZM724.761 471.273C724.435 471.273 724.153 471.161 723.916 470.939C723.684 470.716 723.568 470.449 723.568 470.136C723.568 469.824 723.684 469.556 723.916 469.334C724.153 469.111 724.435 469 724.761 469C725.088 469 725.367 469.111 725.599 469.334C725.836 469.556 725.955 469.824 725.955 470.136C725.955 470.449 725.836 470.716 725.599 470.939C725.367 471.161 725.088 471.273 724.761 471.273ZM733.059 488.318C732.249 488.318 731.553 488.214 730.971 488.006C730.388 487.802 729.903 487.532 729.515 487.196C729.131 486.865 728.826 486.509 728.598 486.131L729.934 485.193C730.085 485.392 730.277 485.619 730.509 485.875C730.741 486.135 731.058 486.36 731.461 486.55C731.868 486.744 732.4 486.841 733.059 486.841C733.939 486.841 734.666 486.628 735.239 486.202C735.812 485.776 736.098 485.108 736.098 484.199V481.983H735.956C735.833 482.182 735.658 482.428 735.431 482.722C735.208 483.01 734.886 483.268 734.465 483.496C734.048 483.718 733.485 483.83 732.775 483.83C731.894 483.83 731.103 483.621 730.402 483.205C729.706 482.788 729.155 482.182 728.748 481.386C728.345 480.591 728.144 479.625 728.144 478.489C728.144 477.371 728.34 476.398 728.733 475.57C729.126 474.736 729.673 474.092 730.374 473.638C731.075 473.179 731.884 472.949 732.803 472.949C733.513 472.949 734.077 473.067 734.493 473.304C734.915 473.536 735.237 473.801 735.459 474.099C735.686 474.393 735.862 474.634 735.985 474.824H736.155V473.091H737.775V484.312C737.775 485.25 737.561 486.012 737.135 486.599C736.714 487.191 736.146 487.625 735.431 487.899C734.721 488.179 733.93 488.318 733.059 488.318ZM733.002 482.324C733.674 482.324 734.242 482.17 734.706 481.862C735.17 481.554 735.523 481.112 735.765 480.534C736.006 479.956 736.127 479.265 736.127 478.46C736.127 477.674 736.008 476.981 735.772 476.379C735.535 475.778 735.185 475.307 734.721 474.966C734.257 474.625 733.684 474.455 733.002 474.455C732.292 474.455 731.7 474.634 731.226 474.994C730.757 475.354 730.405 475.837 730.168 476.443C729.936 477.049 729.82 477.722 729.82 478.46C729.82 479.218 729.938 479.888 730.175 480.47C730.417 481.048 730.772 481.502 731.24 481.834C731.714 482.161 732.301 482.324 733.002 482.324ZM740.843 484V473.091H742.519V484H740.843ZM741.695 471.273C741.368 471.273 741.087 471.161 740.85 470.939C740.618 470.716 740.502 470.449 740.502 470.136C740.502 469.824 740.618 469.556 740.85 469.334C741.087 469.111 741.368 469 741.695 469C742.022 469 742.301 469.111 742.533 469.334C742.77 469.556 742.888 469.824 742.888 470.136C742.888 470.449 742.77 470.716 742.533 470.939C742.301 471.161 742.022 471.273 741.695 471.273ZM750.333 473.091V474.511H744.68V473.091H750.333ZM746.327 470.477H748.004V480.875C748.004 481.348 748.072 481.704 748.21 481.94C748.352 482.172 748.531 482.329 748.749 482.409C748.972 482.485 749.206 482.523 749.452 482.523C749.637 482.523 749.789 482.513 749.907 482.494C750.025 482.471 750.12 482.452 750.191 482.438L750.532 483.943C750.418 483.986 750.26 484.028 750.056 484.071C749.853 484.118 749.594 484.142 749.282 484.142C748.808 484.142 748.344 484.04 747.89 483.837C747.44 483.633 747.066 483.323 746.768 482.906C746.474 482.49 746.327 481.964 746.327 481.33V470.477ZM757.311 484.227C756.26 484.227 755.353 483.995 754.591 483.531C753.833 483.062 753.249 482.409 752.837 481.571C752.429 480.728 752.226 479.748 752.226 478.631C752.226 477.513 752.429 476.528 752.837 475.676C753.249 474.819 753.821 474.152 754.555 473.673C755.294 473.19 756.156 472.949 757.141 472.949C757.709 472.949 758.27 473.044 758.824 473.233C759.378 473.422 759.882 473.73 760.337 474.156C760.791 474.578 761.153 475.136 761.423 475.832C761.693 476.528 761.828 477.385 761.828 478.403V479.114H753.419V477.665H760.124C760.124 477.049 760 476.5 759.754 476.017C759.513 475.534 759.167 475.153 758.717 474.874C758.272 474.594 757.747 474.455 757.141 474.455C756.473 474.455 755.895 474.62 755.408 474.952C754.925 475.278 754.553 475.705 754.293 476.23C754.032 476.756 753.902 477.319 753.902 477.92V478.886C753.902 479.71 754.044 480.409 754.328 480.982C754.617 481.55 755.017 481.983 755.528 482.281C756.04 482.575 756.634 482.722 757.311 482.722C757.751 482.722 758.149 482.66 758.504 482.537C758.864 482.409 759.174 482.22 759.435 481.969C759.695 481.713 759.896 481.396 760.038 481.017L761.658 481.472C761.487 482.021 761.201 482.504 760.798 482.92C760.396 483.332 759.899 483.654 759.307 483.886C758.715 484.114 758.05 484.227 757.311 484.227ZM772.56 473.091C772.474 472.371 772.129 471.812 771.523 471.415C770.917 471.017 770.173 470.818 769.293 470.818C768.649 470.818 768.085 470.922 767.602 471.131C767.124 471.339 766.75 471.625 766.48 471.99C766.215 472.355 766.082 472.769 766.082 473.233C766.082 473.621 766.175 473.955 766.359 474.234C766.549 474.509 766.79 474.739 767.084 474.923C767.377 475.103 767.685 475.252 768.007 475.371C768.329 475.484 768.625 475.577 768.895 475.648L770.372 476.045C770.751 476.145 771.172 476.282 771.636 476.457C772.105 476.633 772.553 476.872 772.979 477.175C773.41 477.473 773.765 477.857 774.044 478.325C774.323 478.794 774.463 479.369 774.463 480.051C774.463 480.837 774.257 481.547 773.845 482.182C773.438 482.816 772.841 483.321 772.055 483.695C771.274 484.069 770.325 484.256 769.207 484.256C768.166 484.256 767.264 484.088 766.501 483.751C765.744 483.415 765.147 482.946 764.712 482.345C764.281 481.744 764.037 481.045 763.98 480.25H765.798C765.846 480.799 766.03 481.254 766.352 481.614C766.679 481.969 767.091 482.234 767.588 482.409C768.09 482.58 768.63 482.665 769.207 482.665C769.88 482.665 770.483 482.556 771.018 482.338C771.554 482.116 771.977 481.808 772.29 481.415C772.602 481.017 772.759 480.553 772.759 480.023C772.759 479.54 772.624 479.147 772.354 478.844C772.084 478.541 771.729 478.295 771.288 478.105C770.848 477.916 770.372 477.75 769.861 477.608L768.071 477.097C766.935 476.77 766.035 476.304 765.372 475.697C764.709 475.091 764.378 474.298 764.378 473.318C764.378 472.504 764.598 471.794 765.038 471.188C765.483 470.577 766.08 470.103 766.828 469.767C767.581 469.426 768.421 469.256 769.349 469.256C770.287 469.256 771.12 469.424 771.849 469.76C772.579 470.091 773.156 470.546 773.582 471.124C774.013 471.701 774.241 472.357 774.264 473.091H772.56ZM781.706 484.227C780.654 484.227 779.748 483.995 778.985 483.531C778.228 483.062 777.643 482.409 777.231 481.571C776.824 480.728 776.62 479.748 776.62 478.631C776.62 477.513 776.824 476.528 777.231 475.676C777.643 474.819 778.216 474.152 778.95 473.673C779.689 473.19 780.55 472.949 781.535 472.949C782.103 472.949 782.664 473.044 783.218 473.233C783.772 473.422 784.277 473.73 784.731 474.156C785.186 474.578 785.548 475.136 785.818 475.832C786.088 476.528 786.223 477.385 786.223 478.403V479.114H777.814V477.665H784.518C784.518 477.049 784.395 476.5 784.149 476.017C783.907 475.534 783.562 475.153 783.112 474.874C782.667 474.594 782.141 474.455 781.535 474.455C780.868 474.455 780.29 474.62 779.802 474.952C779.319 475.278 778.948 475.705 778.687 476.23C778.427 476.756 778.297 477.319 778.297 477.92V478.886C778.297 479.71 778.439 480.409 778.723 480.982C779.011 481.55 779.412 481.983 779.923 482.281C780.434 482.575 781.029 482.722 781.706 482.722C782.146 482.722 782.544 482.66 782.899 482.537C783.259 482.409 783.569 482.22 783.829 481.969C784.09 481.713 784.291 481.396 784.433 481.017L786.052 481.472C785.882 482.021 785.595 482.504 785.193 482.92C784.79 483.332 784.293 483.654 783.701 483.886C783.109 484.114 782.444 484.227 781.706 484.227ZM795.647 479.54V473.091H797.324V484H795.647V482.153H795.534C795.278 482.707 794.88 483.179 794.341 483.567C793.801 483.95 793.119 484.142 792.295 484.142C791.613 484.142 791.007 483.993 790.477 483.695C789.947 483.392 789.53 482.937 789.227 482.331C788.924 481.72 788.772 480.951 788.772 480.023V473.091H790.449V479.909C790.449 480.705 790.671 481.339 791.116 481.812C791.566 482.286 792.139 482.523 792.835 482.523C793.252 482.523 793.675 482.416 794.106 482.203C794.542 481.99 794.906 481.663 795.2 481.223C795.498 480.783 795.647 480.222 795.647 479.54ZM800.621 484V469.455H809.399V471.017H802.382V475.932H808.945V477.494H802.382V482.438H809.513V484H800.621ZM812.347 484V473.091H813.966V474.795H814.108C814.335 474.213 814.702 473.761 815.209 473.439C815.715 473.112 816.324 472.949 817.034 472.949C817.754 472.949 818.353 473.112 818.831 473.439C819.314 473.761 819.69 474.213 819.96 474.795H820.074C820.353 474.232 820.772 473.785 821.331 473.453C821.89 473.117 822.56 472.949 823.341 472.949C824.316 472.949 825.114 473.254 825.734 473.865C826.355 474.471 826.665 475.416 826.665 476.699V484H824.989V476.699C824.989 475.894 824.768 475.319 824.328 474.973C823.888 474.627 823.369 474.455 822.773 474.455C822.006 474.455 821.411 474.687 820.99 475.151C820.569 475.61 820.358 476.192 820.358 476.898V484H818.653V476.528C818.653 475.908 818.452 475.409 818.05 475.03C817.647 474.646 817.129 474.455 816.494 474.455C816.059 474.455 815.652 474.571 815.273 474.803C814.899 475.035 814.596 475.357 814.364 475.768C814.136 476.176 814.023 476.647 814.023 477.182V484H812.347ZM832.94 484.256C832.248 484.256 831.621 484.125 831.058 483.865C830.494 483.6 830.047 483.219 829.715 482.722C829.384 482.22 829.218 481.614 829.218 480.903C829.218 480.278 829.341 479.772 829.587 479.384C829.834 478.991 830.163 478.683 830.575 478.46C830.987 478.238 831.441 478.072 831.938 477.963C832.44 477.849 832.944 477.759 833.451 477.693C834.114 477.608 834.651 477.544 835.063 477.501C835.48 477.454 835.783 477.376 835.972 477.267C836.166 477.158 836.263 476.969 836.263 476.699V476.642C836.263 475.941 836.072 475.397 835.688 475.009C835.309 474.62 834.734 474.426 833.962 474.426C833.162 474.426 832.535 474.601 832.08 474.952C831.626 475.302 831.306 475.676 831.121 476.074L829.531 475.506C829.815 474.843 830.193 474.327 830.667 473.957C831.145 473.583 831.666 473.323 832.229 473.176C832.798 473.025 833.356 472.949 833.906 472.949C834.256 472.949 834.658 472.991 835.113 473.077C835.572 473.157 836.015 473.325 836.441 473.581C836.872 473.837 837.229 474.223 837.513 474.739C837.798 475.255 837.94 475.946 837.94 476.812V484H836.263V482.523H836.178C836.065 482.759 835.875 483.013 835.61 483.283C835.345 483.553 834.992 483.782 834.552 483.972C834.112 484.161 833.574 484.256 832.94 484.256ZM833.195 482.75C833.858 482.75 834.417 482.62 834.871 482.359C835.331 482.099 835.676 481.763 835.908 481.351C836.145 480.939 836.263 480.506 836.263 480.051V478.517C836.192 478.602 836.036 478.68 835.795 478.751C835.558 478.818 835.283 478.877 834.971 478.929C834.663 478.976 834.362 479.019 834.069 479.057C833.78 479.09 833.546 479.118 833.366 479.142C832.93 479.199 832.523 479.291 832.144 479.419C831.77 479.542 831.467 479.729 831.235 479.98C831.008 480.226 830.894 480.562 830.894 480.989C830.894 481.571 831.11 482.011 831.54 482.31C831.976 482.603 832.528 482.75 833.195 482.75ZM840.999 484V473.091H842.675V484H840.999ZM841.851 471.273C841.525 471.273 841.243 471.161 841.006 470.939C840.774 470.716 840.658 470.449 840.658 470.136C840.658 469.824 840.774 469.556 841.006 469.334C841.243 469.111 841.525 469 841.851 469C842.178 469 842.457 469.111 842.689 469.334C842.926 469.556 843.044 469.824 843.044 470.136C843.044 470.449 842.926 470.716 842.689 470.939C842.457 471.161 842.178 471.273 841.851 471.273ZM847.421 469.455V484H845.745V469.455H847.421ZM858.872 487.835C857.423 487.835 856.142 487.636 855.029 487.239C853.917 486.846 852.982 486.266 852.224 485.499C851.467 484.732 850.894 483.792 850.505 482.679C850.117 481.566 849.923 480.293 849.923 478.858C849.923 477.471 850.119 476.23 850.512 475.136C850.91 474.043 851.485 473.115 852.238 472.352C852.996 471.585 853.914 471 854.994 470.598C856.078 470.196 857.305 469.994 858.673 469.994C860.003 469.994 861.168 470.212 862.167 470.648C863.171 471.079 864.009 471.663 864.681 472.402C865.359 473.136 865.865 473.962 866.201 474.881C866.542 475.799 866.713 476.746 866.713 477.722C866.713 478.408 866.68 479.104 866.613 479.81C866.547 480.515 866.407 481.164 866.194 481.756C865.981 482.343 865.652 482.816 865.207 483.176C864.767 483.536 864.17 483.716 863.417 483.716C863.086 483.716 862.721 483.664 862.324 483.56C861.926 483.455 861.573 483.283 861.265 483.041C860.958 482.8 860.775 482.475 860.718 482.068H860.633C860.52 482.343 860.344 482.603 860.108 482.849C859.876 483.096 859.57 483.292 859.191 483.439C858.817 483.586 858.36 483.65 857.821 483.631C857.205 483.607 856.663 483.47 856.194 483.219C855.725 482.963 855.333 482.617 855.015 482.182C854.703 481.741 854.466 481.232 854.305 480.655C854.149 480.072 854.071 479.445 854.071 478.773C854.071 478.134 854.165 477.549 854.355 477.018C854.544 476.488 854.807 476.024 855.143 475.626C855.484 475.229 855.882 474.911 856.336 474.675C856.796 474.433 857.29 474.284 857.821 474.227C858.294 474.18 858.725 474.201 859.113 474.291C859.502 474.376 859.821 474.507 860.072 474.682C860.323 474.852 860.482 475.042 860.548 475.25H860.633V474.455H862.139V480.875C862.139 481.273 862.25 481.623 862.473 481.926C862.695 482.229 863.02 482.381 863.446 482.381C863.929 482.381 864.298 482.215 864.554 481.884C864.814 481.552 864.992 481.041 865.086 480.349C865.186 479.658 865.235 478.773 865.235 477.693C865.235 477.059 865.148 476.434 864.973 475.818C864.802 475.198 864.542 474.618 864.191 474.078C863.846 473.538 863.408 473.062 862.877 472.651C862.347 472.239 861.725 471.917 861.01 471.685C860.299 471.448 859.492 471.33 858.588 471.33C857.475 471.33 856.478 471.502 855.598 471.848C854.722 472.189 853.976 472.688 853.36 473.347C852.75 474 852.283 474.795 851.961 475.733C851.644 476.666 851.485 477.726 851.485 478.915C851.485 480.122 851.644 481.195 851.961 482.132C852.283 483.07 852.757 483.86 853.382 484.504C854.011 485.148 854.79 485.636 855.718 485.967C856.646 486.304 857.717 486.472 858.929 486.472C859.449 486.472 859.963 486.422 860.47 486.322C860.976 486.223 861.424 486.114 861.812 485.996C862.2 485.877 862.48 485.79 862.65 485.733L863.048 487.04C862.754 487.163 862.371 487.286 861.897 487.409C861.429 487.532 860.927 487.634 860.392 487.714C859.861 487.795 859.355 487.835 858.872 487.835ZM858.048 482.182C858.682 482.182 859.196 482.054 859.589 481.798C859.982 481.543 860.269 481.157 860.449 480.641C860.628 480.125 860.718 479.473 860.718 478.688C860.718 477.892 860.619 477.272 860.42 476.827C860.221 476.382 859.928 476.069 859.539 475.889C859.151 475.709 858.673 475.619 858.105 475.619C857.565 475.619 857.103 475.761 856.72 476.045C856.341 476.325 856.05 476.699 855.846 477.168C855.647 477.632 855.548 478.138 855.548 478.688C855.548 479.294 855.628 479.864 855.789 480.399C855.95 480.929 856.213 481.36 856.578 481.692C856.942 482.018 857.432 482.182 858.048 482.182ZM873.795 484.227C872.744 484.227 871.838 483.995 871.075 483.531C870.318 483.062 869.733 482.409 869.321 481.571C868.914 480.728 868.71 479.748 868.71 478.631C868.71 477.513 868.914 476.528 869.321 475.676C869.733 474.819 870.306 474.152 871.04 473.673C871.778 473.19 872.64 472.949 873.625 472.949C874.193 472.949 874.754 473.044 875.308 473.233C875.862 473.422 876.366 473.73 876.821 474.156C877.276 474.578 877.638 475.136 877.908 475.832C878.178 476.528 878.312 477.385 878.312 478.403V479.114H869.903V477.665H876.608C876.608 477.049 876.485 476.5 876.239 476.017C875.997 475.534 875.652 475.153 875.202 474.874C874.757 474.594 874.231 474.455 873.625 474.455C872.957 474.455 872.38 474.62 871.892 474.952C871.409 475.278 871.037 475.705 870.777 476.23C870.517 476.756 870.386 477.319 870.386 477.92V478.886C870.386 479.71 870.528 480.409 870.812 480.982C871.101 481.55 871.501 481.983 872.013 482.281C872.524 482.575 873.118 482.722 873.795 482.722C874.236 482.722 874.634 482.66 874.989 482.537C875.348 482.409 875.659 482.22 875.919 481.969C876.179 481.713 876.381 481.396 876.523 481.017L878.142 481.472C877.972 482.021 877.685 482.504 877.283 482.92C876.88 483.332 876.383 483.654 875.791 483.886C875.199 484.114 874.534 484.227 873.795 484.227ZM880.862 484V473.091H882.482V474.795H882.624C882.851 474.213 883.218 473.761 883.724 473.439C884.231 473.112 884.839 472.949 885.55 472.949C886.269 472.949 886.868 473.112 887.347 473.439C887.83 473.761 888.206 474.213 888.476 474.795H888.589C888.869 474.232 889.288 473.785 889.847 473.453C890.405 473.117 891.075 472.949 891.857 472.949C892.832 472.949 893.63 473.254 894.25 473.865C894.87 474.471 895.18 475.416 895.18 476.699V484H893.504V476.699C893.504 475.894 893.284 475.319 892.844 474.973C892.403 474.627 891.885 474.455 891.288 474.455C890.521 474.455 889.927 474.687 889.506 475.151C889.084 475.61 888.874 476.192 888.874 476.898V484H887.169V476.528C887.169 475.908 886.968 475.409 886.565 475.03C886.163 474.646 885.644 474.455 885.01 474.455C884.574 474.455 884.167 474.571 883.788 474.803C883.414 475.035 883.111 475.357 882.879 475.768C882.652 476.176 882.538 476.647 882.538 477.182V484H880.862ZM901.455 484.256C900.764 484.256 900.137 484.125 899.573 483.865C899.01 483.6 898.562 483.219 898.231 482.722C897.899 482.22 897.734 481.614 897.734 480.903C897.734 480.278 897.857 479.772 898.103 479.384C898.349 478.991 898.678 478.683 899.09 478.46C899.502 478.238 899.957 478.072 900.454 477.963C900.956 477.849 901.46 477.759 901.967 477.693C902.629 477.608 903.167 477.544 903.579 477.501C903.996 477.454 904.299 477.376 904.488 477.267C904.682 477.158 904.779 476.969 904.779 476.699V476.642C904.779 475.941 904.587 475.397 904.204 475.009C903.825 474.62 903.25 474.426 902.478 474.426C901.678 474.426 901.05 474.601 900.596 474.952C900.141 475.302 899.822 475.676 899.637 476.074L898.046 475.506C898.33 474.843 898.709 474.327 899.183 473.957C899.661 473.583 900.182 473.323 900.745 473.176C901.313 473.025 901.872 472.949 902.421 472.949C902.772 472.949 903.174 472.991 903.629 473.077C904.088 473.157 904.531 473.325 904.957 473.581C905.388 473.837 905.745 474.223 906.029 474.739C906.313 475.255 906.455 475.946 906.455 476.812V484H904.779V482.523H904.694C904.58 482.759 904.391 483.013 904.126 483.283C903.861 483.553 903.508 483.782 903.067 483.972C902.627 484.161 902.09 484.256 901.455 484.256ZM901.711 482.75C902.374 482.75 902.933 482.62 903.387 482.359C903.846 482.099 904.192 481.763 904.424 481.351C904.661 480.939 904.779 480.506 904.779 480.051V478.517C904.708 478.602 904.552 478.68 904.31 478.751C904.074 478.818 903.799 478.877 903.487 478.929C903.179 478.976 902.878 479.019 902.585 479.057C902.296 479.09 902.061 479.118 901.881 479.142C901.446 479.199 901.039 479.291 900.66 479.419C900.286 479.542 899.983 479.729 899.751 479.98C899.523 480.226 899.41 480.562 899.41 480.989C899.41 481.571 899.625 482.011 900.056 482.31C900.492 482.603 901.043 482.75 901.711 482.75ZM909.515 484V473.091H911.191V484H909.515ZM910.367 471.273C910.04 471.273 909.758 471.161 909.522 470.939C909.29 470.716 909.174 470.449 909.174 470.136C909.174 469.824 909.29 469.556 909.522 469.334C909.758 469.111 910.04 469 910.367 469C910.694 469 910.973 469.111 911.205 469.334C911.442 469.556 911.56 469.824 911.56 470.136C911.56 470.449 911.442 470.716 911.205 470.939C910.973 471.161 910.694 471.273 910.367 471.273ZM915.937 469.455V484H914.261V469.455H915.937ZM920.228 484.114C919.878 484.114 919.577 483.988 919.326 483.737C919.075 483.486 918.95 483.186 918.95 482.835C918.95 482.485 919.075 482.184 919.326 481.933C919.577 481.682 919.878 481.557 920.228 481.557C920.579 481.557 920.879 481.682 921.13 481.933C921.381 482.184 921.507 482.485 921.507 482.835C921.507 483.067 921.448 483.28 921.329 483.474C921.216 483.669 921.062 483.825 920.868 483.943C920.678 484.057 920.465 484.114 920.228 484.114ZM928.946 484.227C927.924 484.227 927.043 483.986 926.304 483.503C925.566 483.02 924.998 482.355 924.6 481.507C924.202 480.66 924.003 479.691 924.003 478.602C924.003 477.494 924.207 476.517 924.614 475.669C925.026 474.817 925.599 474.152 926.333 473.673C927.071 473.19 927.933 472.949 928.918 472.949C929.685 472.949 930.376 473.091 930.992 473.375C931.607 473.659 932.112 474.057 932.505 474.568C932.898 475.08 933.141 475.676 933.236 476.358H931.56C931.432 475.861 931.148 475.42 930.708 475.037C930.272 474.649 929.685 474.455 928.946 474.455C928.293 474.455 927.72 474.625 927.228 474.966C926.74 475.302 926.359 475.778 926.084 476.393C925.814 477.004 925.679 477.722 925.679 478.545C925.679 479.388 925.812 480.122 926.077 480.747C926.347 481.372 926.726 481.857 927.213 482.203C927.706 482.549 928.283 482.722 928.946 482.722C929.382 482.722 929.777 482.646 930.132 482.494C930.488 482.343 930.788 482.125 931.034 481.841C931.281 481.557 931.456 481.216 931.56 480.818H933.236C933.141 481.462 932.907 482.042 932.533 482.558C932.164 483.07 931.674 483.477 931.063 483.78C930.457 484.078 929.751 484.227 928.946 484.227ZM940.118 484.227C939.133 484.227 938.269 483.993 937.526 483.524C936.787 483.055 936.21 482.4 935.793 481.557C935.381 480.714 935.175 479.729 935.175 478.602C935.175 477.466 935.381 476.474 935.793 475.626C936.21 474.779 936.787 474.121 937.526 473.652C938.269 473.183 939.133 472.949 940.118 472.949C941.103 472.949 941.965 473.183 942.703 473.652C943.447 474.121 944.025 474.779 944.436 475.626C944.853 476.474 945.061 477.466 945.061 478.602C945.061 479.729 944.853 480.714 944.436 481.557C944.025 482.4 943.447 483.055 942.703 483.524C941.965 483.993 941.103 484.227 940.118 484.227ZM940.118 482.722C940.866 482.722 941.482 482.53 941.965 482.146C942.448 481.763 942.805 481.259 943.037 480.634C943.269 480.009 943.385 479.331 943.385 478.602C943.385 477.873 943.269 477.194 943.037 476.564C942.805 475.934 942.448 475.425 941.965 475.037C941.482 474.649 940.866 474.455 940.118 474.455C939.37 474.455 938.755 474.649 938.272 475.037C937.789 475.425 937.431 475.934 937.199 476.564C936.967 477.194 936.851 477.873 936.851 478.602C936.851 479.331 936.967 480.009 937.199 480.634C937.431 481.259 937.789 481.763 938.272 482.146C938.755 482.53 939.37 482.722 940.118 482.722ZM947.62 484V473.091H949.239V474.795H949.381C949.609 474.213 949.976 473.761 950.482 473.439C950.989 473.112 951.597 472.949 952.308 472.949C953.027 472.949 953.626 473.112 954.104 473.439C954.587 473.761 954.964 474.213 955.234 474.795H955.347C955.627 474.232 956.046 473.785 956.604 473.453C957.163 473.117 957.833 472.949 958.614 472.949C959.59 472.949 960.388 473.254 961.008 473.865C961.628 474.471 961.938 475.416 961.938 476.699V484H960.262V476.699C960.262 475.894 960.042 475.319 959.602 474.973C959.161 474.627 958.643 474.455 958.046 474.455C957.279 474.455 956.685 474.687 956.263 475.151C955.842 475.61 955.631 476.192 955.631 476.898V484H953.927V476.528C953.927 475.908 953.726 475.409 953.323 475.03C952.921 474.646 952.402 474.455 951.768 474.455C951.332 474.455 950.925 474.571 950.546 474.803C950.172 475.035 949.869 475.357 949.637 475.768C949.41 476.176 949.296 476.647 949.296 477.182V484H947.62Z" fill="black" fill-opacity="0.5"/>
<rect x="685" y="571" width="551" height="50" rx="8" fill="#EDEDED"/>
<path d="M694.716 548.091C694.631 547.371 694.285 546.812 693.679 546.415C693.073 546.017 692.33 545.818 691.449 545.818C690.805 545.818 690.241 545.922 689.759 546.131C689.28 546.339 688.906 546.625 688.636 546.99C688.371 547.355 688.239 547.769 688.239 548.233C688.239 548.621 688.331 548.955 688.516 549.234C688.705 549.509 688.946 549.739 689.24 549.923C689.534 550.103 689.841 550.252 690.163 550.371C690.485 550.484 690.781 550.577 691.051 550.648L692.528 551.045C692.907 551.145 693.329 551.282 693.793 551.457C694.261 551.633 694.709 551.872 695.135 552.175C695.566 552.473 695.921 552.857 696.2 553.325C696.48 553.794 696.619 554.369 696.619 555.051C696.619 555.837 696.413 556.547 696.001 557.182C695.594 557.816 694.998 558.321 694.212 558.695C693.43 559.069 692.481 559.256 691.364 559.256C690.322 559.256 689.42 559.088 688.658 558.751C687.9 558.415 687.304 557.946 686.868 557.345C686.437 556.744 686.193 556.045 686.136 555.25H687.955C688.002 555.799 688.187 556.254 688.509 556.614C688.835 556.969 689.247 557.234 689.744 557.409C690.246 557.58 690.786 557.665 691.364 557.665C692.036 557.665 692.64 557.556 693.175 557.338C693.71 557.116 694.134 556.808 694.446 556.415C694.759 556.017 694.915 555.553 694.915 555.023C694.915 554.54 694.78 554.147 694.51 553.844C694.24 553.541 693.885 553.295 693.445 553.105C693.004 552.916 692.528 552.75 692.017 552.608L690.227 552.097C689.091 551.77 688.191 551.304 687.528 550.697C686.866 550.091 686.534 549.298 686.534 548.318C686.534 547.504 686.754 546.794 687.195 546.188C687.64 545.577 688.236 545.103 688.984 544.767C689.737 544.426 690.578 544.256 691.506 544.256C692.443 544.256 693.277 544.424 694.006 544.76C694.735 545.091 695.313 545.546 695.739 546.124C696.17 546.701 696.397 547.357 696.42 548.091H694.716ZM703.862 559.227C702.811 559.227 701.904 558.995 701.142 558.531C700.384 558.062 699.799 557.409 699.387 556.571C698.98 555.728 698.777 554.748 698.777 553.631C698.777 552.513 698.98 551.528 699.387 550.676C699.799 549.819 700.372 549.152 701.106 548.673C701.845 548.19 702.707 547.949 703.691 547.949C704.26 547.949 704.821 548.044 705.375 548.233C705.929 548.422 706.433 548.73 706.887 549.156C707.342 549.578 707.704 550.136 707.974 550.832C708.244 551.528 708.379 552.385 708.379 553.403V554.114H699.97V552.665H706.674C706.674 552.049 706.551 551.5 706.305 551.017C706.064 550.534 705.718 550.153 705.268 549.874C704.823 549.594 704.297 549.455 703.691 549.455C703.024 549.455 702.446 549.62 701.958 549.952C701.475 550.278 701.104 550.705 700.843 551.23C700.583 551.756 700.453 552.319 700.453 552.92V553.886C700.453 554.71 700.595 555.409 700.879 555.982C701.168 556.55 701.568 556.983 702.079 557.281C702.591 557.575 703.185 557.722 703.862 557.722C704.302 557.722 704.7 557.66 705.055 557.537C705.415 557.409 705.725 557.22 705.985 556.969C706.246 556.713 706.447 556.396 706.589 556.017L708.208 556.472C708.038 557.021 707.752 557.504 707.349 557.92C706.947 558.332 706.449 558.654 705.858 558.886C705.266 559.114 704.6 559.227 703.862 559.227ZM712.605 552.438V559H710.929V548.091H712.548V549.795H712.69C712.946 549.241 713.334 548.796 713.855 548.46C714.376 548.119 715.048 547.949 715.872 547.949C716.61 547.949 717.257 548.1 717.811 548.403C718.365 548.702 718.796 549.156 719.103 549.767C719.411 550.373 719.565 551.14 719.565 552.068V559H717.889V552.182C717.889 551.325 717.666 550.657 717.221 550.179C716.776 549.696 716.165 549.455 715.389 549.455C714.854 549.455 714.376 549.571 713.954 549.803C713.538 550.035 713.208 550.373 712.967 550.818C712.725 551.263 712.605 551.803 712.605 552.438ZM724.304 552.438V559H722.628V544.455H724.304V549.795H724.446C724.702 549.232 725.085 548.785 725.597 548.453C726.113 548.117 726.799 547.949 727.656 547.949C728.4 547.949 729.051 548.098 729.609 548.396C730.168 548.69 730.601 549.142 730.909 549.753C731.222 550.359 731.378 551.131 731.378 552.068V559H729.702V552.182C729.702 551.315 729.477 550.645 729.027 550.172C728.582 549.694 727.964 549.455 727.173 549.455C726.624 549.455 726.132 549.571 725.696 549.803C725.265 550.035 724.924 550.373 724.673 550.818C724.427 551.263 724.304 551.803 724.304 552.438ZM737.654 559.256C736.963 559.256 736.336 559.125 735.772 558.865C735.209 558.6 734.761 558.219 734.43 557.722C734.099 557.22 733.933 556.614 733.933 555.903C733.933 555.278 734.056 554.772 734.302 554.384C734.548 553.991 734.877 553.683 735.289 553.46C735.701 553.238 736.156 553.072 736.653 552.963C737.155 552.849 737.659 552.759 738.166 552.693C738.829 552.608 739.366 552.544 739.778 552.501C740.195 552.454 740.498 552.376 740.687 552.267C740.881 552.158 740.978 551.969 740.978 551.699V551.642C740.978 550.941 740.787 550.397 740.403 550.009C740.024 549.62 739.449 549.426 738.677 549.426C737.877 549.426 737.25 549.601 736.795 549.952C736.341 550.302 736.021 550.676 735.836 551.074L734.245 550.506C734.529 549.843 734.908 549.327 735.382 548.957C735.86 548.583 736.381 548.323 736.944 548.176C737.512 548.025 738.071 547.949 738.62 547.949C738.971 547.949 739.373 547.991 739.828 548.077C740.287 548.157 740.73 548.325 741.156 548.581C741.587 548.837 741.944 549.223 742.228 549.739C742.512 550.255 742.654 550.946 742.654 551.812V559H740.978V557.523H740.893C740.779 557.759 740.59 558.013 740.325 558.283C740.06 558.553 739.707 558.782 739.267 558.972C738.826 559.161 738.289 559.256 737.654 559.256ZM737.91 557.75C738.573 557.75 739.132 557.62 739.586 557.359C740.046 557.099 740.391 556.763 740.623 556.351C740.86 555.939 740.978 555.506 740.978 555.051V553.517C740.907 553.602 740.751 553.68 740.51 553.751C740.273 553.818 739.998 553.877 739.686 553.929C739.378 553.976 739.077 554.019 738.784 554.057C738.495 554.09 738.261 554.118 738.081 554.142C737.645 554.199 737.238 554.291 736.859 554.419C736.485 554.542 736.182 554.729 735.95 554.98C735.723 555.226 735.609 555.562 735.609 555.989C735.609 556.571 735.824 557.011 736.255 557.31C736.691 557.603 737.243 557.75 737.91 557.75Z" fill="black"/>
<path d="M714.625 599.33C714.052 599.33 713.529 599.19 713.055 598.911C712.582 598.626 712.203 598.248 711.919 597.774C711.64 597.301 711.5 596.777 711.5 596.205C711.5 595.627 711.64 595.104 711.919 594.635C712.203 594.161 712.582 593.785 713.055 593.506C713.529 593.222 714.052 593.08 714.625 593.08C715.203 593.08 715.726 593.222 716.195 593.506C716.668 593.785 717.045 594.161 717.324 594.635C717.608 595.104 717.75 595.627 717.75 596.205C717.75 596.777 717.608 597.301 717.324 597.774C717.045 598.248 716.668 598.626 716.195 598.911C715.726 599.19 715.203 599.33 714.625 599.33ZM725.875 599.33C725.302 599.33 724.779 599.19 724.305 598.911C723.832 598.626 723.453 598.248 723.169 597.774C722.89 597.301 722.75 596.777 722.75 596.205C722.75 595.627 722.89 595.104 723.169 594.635C723.453 594.161 723.832 593.785 724.305 593.506C724.779 593.222 725.302 593.08 725.875 593.08C726.453 593.08 726.976 593.222 727.445 593.506C727.918 593.785 728.295 594.161 728.574 594.635C728.858 595.104 729 595.627 729 596.205C729 596.777 728.858 597.301 728.574 597.774C728.295 598.248 727.918 598.626 727.445 598.911C726.976 599.19 726.453 599.33 725.875 599.33ZM737.125 599.33C736.552 599.33 736.029 599.19 735.555 598.911C735.082 598.626 734.703 598.248 734.419 597.774C734.14 597.301 734 596.777 734 596.205C734 595.627 734.14 595.104 734.419 594.635C734.703 594.161 735.082 593.785 735.555 593.506C736.029 593.222 736.552 593.08 737.125 593.08C737.703 593.08 738.226 593.222 738.695 593.506C739.168 593.785 739.545 594.161 739.824 594.635C740.108 595.104 740.25 595.627 740.25 596.205C740.25 596.777 740.108 597.301 739.824 597.774C739.545 598.248 739.168 598.626 738.695 598.911C738.226 599.19 737.703 599.33 737.125 599.33ZM748.375 599.33C747.802 599.33 747.279 599.19 746.805 598.911C746.332 598.626 745.953 598.248 745.669 597.774C745.39 597.301 745.25 596.777 745.25 596.205C745.25 595.627 745.39 595.104 745.669 594.635C745.953 594.161 746.332 593.785 746.805 593.506C747.279 593.222 747.802 593.08 748.375 593.08C748.953 593.08 749.476 593.222 749.945 593.506C750.418 593.785 750.795 594.161 751.074 594.635C751.358 595.104 751.5 595.627 751.5 596.205C751.5 596.777 751.358 597.301 751.074 597.774C750.795 598.248 750.418 598.626 749.945 598.911C749.476 599.19 748.953 599.33 748.375 599.33ZM759.625 599.33C759.052 599.33 758.529 599.19 758.055 598.911C757.582 598.626 757.203 598.248 756.919 597.774C756.64 597.301 756.5 596.777 756.5 596.205C756.5 595.627 756.64 595.104 756.919 594.635C757.203 594.161 757.582 593.785 758.055 593.506C758.529 593.222 759.052 593.08 759.625 593.08C760.203 593.08 760.726 593.222 761.195 593.506C761.668 593.785 762.045 594.161 762.324 594.635C762.608 595.104 762.75 595.627 762.75 596.205C762.75 596.777 762.608 597.301 762.324 597.774C762.045 598.248 761.668 598.626 761.195 598.911C760.726 599.19 760.203 599.33 759.625 599.33ZM770.875 599.33C770.302 599.33 769.779 599.19 769.305 598.911C768.832 598.626 768.453 598.248 768.169 597.774C767.89 597.301 767.75 596.777 767.75 596.205C767.75 595.627 767.89 595.104 768.169 594.635C768.453 594.161 768.832 593.785 769.305 593.506C769.779 593.222 770.302 593.08 770.875 593.08C771.453 593.08 771.976 593.222 772.445 593.506C772.918 593.785 773.295 594.161 773.574 594.635C773.858 595.104 774 595.627 774 596.205C774 596.777 773.858 597.301 773.574 597.774C773.295 598.248 772.918 598.626 772.445 598.911C771.976 599.19 771.453 599.33 770.875 599.33ZM782.125 599.33C781.552 599.33 781.029 599.19 780.555 598.911C780.082 598.626 779.703 598.248 779.419 597.774C779.14 597.301 779 596.777 779 596.205C779 595.627 779.14 595.104 779.419 594.635C779.703 594.161 780.082 593.785 780.555 593.506C781.029 593.222 781.552 593.08 782.125 593.08C782.703 593.08 783.226 593.222 783.695 593.506C784.168 593.785 784.545 594.161 784.824 594.635C785.108 595.104 785.25 595.627 785.25 596.205C785.25 596.777 785.108 597.301 784.824 597.774C784.545 598.248 784.168 598.626 783.695 598.911C783.226 599.19 782.703 599.33 782.125 599.33ZM793.375 599.33C792.802 599.33 792.279 599.19 791.805 598.911C791.332 598.626 790.953 598.248 790.669 597.774C790.39 597.301 790.25 596.777 790.25 596.205C790.25 595.627 790.39 595.104 790.669 594.635C790.953 594.161 791.332 593.785 791.805 593.506C792.279 593.222 792.802 593.08 793.375 593.08C793.953 593.08 794.476 593.222 794.945 593.506C795.418 593.785 795.795 594.161 796.074 594.635C796.358 595.104 796.5 595.627 796.5 596.205C796.5 596.777 796.358 597.301 796.074 597.774C795.795 598.248 795.418 598.626 794.945 598.911C794.476 599.19 793.953 599.33 793.375 599.33ZM804.625 599.33C804.052 599.33 803.529 599.19 803.055 598.911C802.582 598.626 802.203 598.248 801.919 597.774C801.64 597.301 801.5 596.777 801.5 596.205C801.5 595.627 801.64 595.104 801.919 594.635C802.203 594.161 802.582 593.785 803.055 593.506C803.529 593.222 804.052 593.08 804.625 593.08C805.203 593.08 805.726 593.222 806.195 593.506C806.668 593.785 807.045 594.161 807.324 594.635C807.608 595.104 807.75 595.627 807.75 596.205C807.75 596.777 807.608 597.301 807.324 597.774C807.045 598.248 806.668 598.626 806.195 598.911C805.726 599.19 805.203 599.33 804.625 599.33Z" fill="black" fill-opacity="0.5"/>
</svg>
