<svg width="39" height="51" viewBox="0 0 39 51" fill="none" xmlns="http://www.w3.org/2000/svg">
<path d="M19.165 38.3314C20.4357 38.3314 21.6544 37.8266 22.5529 36.9281C23.4515 36.0295 23.9563 34.8108 23.9563 33.54C23.9563 30.8808 21.8002 28.7486 19.165 28.7486C17.8943 28.7486 16.6756 29.2534 15.7771 30.1519C14.8785 31.0505 14.3738 32.2692 14.3738 33.54C14.3738 34.8108 14.8785 36.0295 15.7771 36.9281C16.6756 37.8266 17.8943 38.3314 19.165 38.3314ZM33.5387 16.77C34.8095 16.77 36.0281 17.2748 36.9267 18.1734C37.8252 19.0719 38.33 20.2907 38.33 21.5614V45.5186C38.33 46.7893 37.8252 48.0081 36.9267 48.9066C36.0281 49.8052 34.8095 50.31 33.5387 50.31H4.79125C3.52053 50.31 2.30186 49.8052 1.40332 48.9066C0.504791 48.0081 0 46.7893 0 45.5186V21.5614C0 18.9022 2.15606 16.77 4.79125 16.77H7.18688V11.9786C7.18688 8.80166 8.44885 5.75486 10.6952 3.50844C12.9415 1.26202 15.9882 0 19.165 0C20.738 0 22.2956 0.309835 23.7488 0.911815C25.2021 1.51379 26.5225 2.39613 27.6348 3.50844C28.7471 4.62076 29.6294 5.94126 30.2313 7.39457C30.8333 8.84788 31.1431 10.4055 31.1431 11.9786V16.77H33.5387ZM19.165 4.79143C17.2589 4.79143 15.4309 5.54864 14.0831 6.89649C12.7353 8.24434 11.9781 10.0724 11.9781 11.9786V16.77H26.3519V11.9786C26.3519 10.0724 25.5947 8.24434 24.2469 6.89649C22.8991 5.54864 21.0711 4.79143 19.165 4.79143Z" fill="white"/>
</svg>
