<svg width="50" height="50" viewBox="0 0 50 50" fill="none" xmlns="http://www.w3.org/2000/svg">
<path d="M37.5001 2.08337C31.7501 2.08337 27.0834 6.75004 27.0834 12.5V16.6667H8.33341C6.04175 16.6667 4.16675 18.5209 4.16675 20.8334V41.6667C4.16675 43.9792 6.04175 45.8334 8.33341 45.8334H33.3334C35.6459 45.8334 37.5001 43.9792 37.5001 41.6667V20.8334C37.5001 18.5417 35.6459 16.6667 33.3334 16.6667H31.2501V12.5C31.2501 9.04171 34.0417 6.25004 37.5001 6.25004C40.9584 6.25004 43.7501 9.04171 43.7501 12.5V16.6667H47.9167V12.5C47.9167 6.75004 43.2501 2.08337 37.5001 2.08337ZM20.8334 27.0834C23.1251 27.0834 25.0001 28.9375 25.0001 31.25C25.0001 33.5625 23.1459 35.4167 20.8334 35.4167C18.5417 35.4167 16.6667 33.5625 16.6667 31.25C16.6667 28.9584 18.5417 27.0834 20.8334 27.0834Z" fill="white"/>
</svg>
