<svg width="25" height="25" viewBox="0 0 25 25" fill="none" xmlns="http://www.w3.org/2000/svg">
<path d="M12.3333 0C13.9688 0 15.5374 0.6497 16.6938 1.80617C17.8503 2.96265 18.5 4.53116 18.5 6.16667C18.5 7.80217 17.8503 9.37068 16.6938 10.5272C15.5374 11.6836 13.9688 12.3333 12.3333 12.3333C10.6978 12.3333 9.12932 11.6836 7.97284 10.5272C6.81637 9.37068 6.16667 7.80217 6.16667 6.16667C6.16667 4.53116 6.81637 2.96265 7.97284 1.80617C9.12932 0.6497 10.6978 0 12.3333 0ZM12.3333 15.4167C19.1475 15.4167 24.6667 18.1762 24.6667 21.5833V24.6667H0V21.5833C0 18.1762 5.51917 15.4167 12.3333 15.4167Z" fill="white"/>
</svg>
