<svg width="19" height="19" viewBox="0 0 19 19" fill="none" xmlns="http://www.w3.org/2000/svg">
<path d="M9.50216 12.825C8.59557 12.825 7.72612 12.4747 7.08507 11.8511C6.44402 11.2276 6.08388 10.3818 6.08388 9.5C6.08388 8.61816 6.44402 7.77243 7.08507 7.14887C7.72612 6.52531 8.59557 6.175 9.50216 6.175C10.4087 6.175 11.2782 6.52531 11.9192 7.14887C12.5603 7.77243 12.9204 8.61816 12.9204 9.5C12.9204 10.3818 12.5603 11.2276 11.9192 11.8511C11.2782 12.4747 10.4087 12.825 9.50216 12.825ZM16.7587 10.4215C16.7977 10.1175 16.827 9.8135 16.827 9.5C16.827 9.1865 16.7977 8.873 16.7587 8.55L18.8194 7.0015C19.005 6.859 19.0538 6.6025 18.9366 6.3935L16.9833 3.1065C16.8661 2.8975 16.6024 2.812 16.3875 2.8975L13.9557 3.8475C13.4478 3.477 12.9204 3.154 12.3051 2.9165L11.9438 0.399C11.9047 0.171 11.6996 0 11.4555 0H7.54886C7.30469 0 7.0996 0.171 7.06053 0.399L6.69917 2.9165C6.08388 3.154 5.55649 3.477 5.04863 3.8475L2.61677 2.8975C2.40191 2.812 2.13821 2.8975 2.02101 3.1065L0.0677127 6.3935C-0.0592519 6.6025 -0.000652701 6.859 0.184911 7.0015L2.24564 8.55C2.20658 8.873 2.17728 9.1865 2.17728 9.5C2.17728 9.8135 2.20658 10.1175 2.24564 10.4215L0.184911 11.9985C-0.000652701 12.141 -0.0592519 12.3975 0.0677127 12.6065L2.02101 15.8935C2.13821 16.1025 2.40191 16.1785 2.61677 16.1025L5.04863 15.143C5.55649 15.523 6.08388 15.846 6.69917 16.0835L7.06053 18.601C7.0996 18.829 7.30469 19 7.54886 19H11.4555C11.6996 19 11.9047 18.829 11.9438 18.601L12.3051 16.0835C12.9204 15.8365 13.4478 15.523 13.9557 15.143L16.3875 16.1025C16.6024 16.1785 16.8661 16.1025 16.9833 15.8935L18.9366 12.6065C19.0538 12.3975 19.005 12.141 18.8194 11.9985L16.7587 10.4215Z" fill="#636363"/>
</svg>
